<svg width="229" height="228" viewBox="0 0 229 228" fill="none" xmlns="http://www.w3.org/2000/svg">
<path d="M114.04 220.872C113.224 220.872 112.336 220.824 111.376 220.728C110.416 220.648 109.48 220.472 108.568 220.2L108.808 217.776C109.512 217.792 110.336 217.808 111.28 217.824C112.224 217.84 113.152 217.848 114.064 217.848C114.512 217.848 114.896 217.832 115.216 217.8C115.52 217.784 115.768 217.72 115.96 217.608C116.152 217.512 116.288 217.36 116.368 217.152C116.448 216.944 116.488 216.656 116.488 216.288C116.488 215.728 116.36 215.32 116.104 215.064C115.832 214.808 115.376 214.576 114.736 214.368L111.544 213.336C110.216 212.888 109.296 212.28 108.784 211.512C108.272 210.744 108.016 209.736 108.016 208.488C108.016 207.544 108.128 206.76 108.352 206.136C108.576 205.512 108.928 205.024 109.408 204.672C109.888 204.32 110.52 204.072 111.304 203.928C112.088 203.768 113.048 203.688 114.184 203.688C114.728 203.688 115.504 203.728 116.512 203.808C117.52 203.872 118.672 204.048 119.968 204.336L119.728 206.928C118.784 206.912 117.968 206.888 117.28 206.856C116.576 206.84 115.976 206.824 115.48 206.808C114.984 206.808 114.552 206.808 114.184 206.808C113.544 206.808 113.048 206.848 112.696 206.928C112.328 207.008 112.072 207.168 111.928 207.408C111.784 207.648 111.712 207.992 111.712 208.44C111.712 208.824 111.768 209.128 111.88 209.352C111.976 209.592 112.144 209.776 112.384 209.904C112.608 210.048 112.92 210.176 113.32 210.288L116.68 211.44C117.944 211.904 118.84 212.512 119.368 213.264C119.896 214.016 120.16 215.008 120.16 216.24C120.16 217.2 120.048 217.976 119.824 218.568C119.584 219.176 119.224 219.648 118.744 219.984C118.248 220.32 117.616 220.552 116.848 220.68C116.064 220.808 115.128 220.872 114.04 220.872Z" fill="white"/>
<path d="M77.7285 214.221L80.5345 204.665C81.0078 203.053 81.5883 201.814 82.276 200.949C82.9591 200.099 83.8266 199.587 84.8784 199.412C85.9104 199.248 87.1863 199.389 88.7062 199.835C90.3181 200.309 91.5445 200.902 92.3855 201.616C93.2219 202.345 93.7131 203.257 93.859 204.35C94.0003 205.459 93.8344 206.819 93.361 208.431L90.555 217.988L87.0317 216.953L89.8378 207.397C90.1308 206.399 90.2762 205.591 90.2742 204.973C90.2522 204.367 90.0601 203.885 89.6979 203.528C89.3356 203.172 88.7938 202.888 88.0722 202.676C87.3507 202.464 86.7489 202.412 86.2667 202.521C85.7693 202.625 85.355 202.929 85.0238 203.432C84.6728 203.946 84.3508 204.701 84.0578 205.699L81.2517 215.256L77.7285 214.221Z" fill="white"/>
<path d="M55.5399 203.031C54.8804 202.608 54.3348 202.228 53.9031 201.894C53.4493 201.564 53.0488 201.24 52.7017 200.922C52.3547 200.604 52.0114 200.25 51.672 199.861L53.3675 197.755C53.7944 198.068 54.192 198.352 54.5602 198.607C54.915 198.854 55.3077 199.116 55.7384 199.393C56.147 199.675 56.6475 200.006 57.2397 200.387C57.9262 200.828 58.5511 201.039 59.1144 201.021C59.6643 200.994 60.2363 200.696 60.8303 200.126C61.4157 199.571 62.0847 198.707 62.8372 197.536C63.5898 196.365 64.1016 195.391 64.3726 194.615C64.6349 193.851 64.6642 193.214 64.4603 192.702C64.2429 192.182 63.791 191.702 63.1046 191.261C62.1758 190.664 61.3865 190.176 60.7366 189.796C60.0867 189.416 59.4305 189.061 58.7681 188.73L59.9588 186.301C60.7347 186.514 61.4851 186.796 62.21 187.148C62.9435 187.486 63.8083 187.976 64.8044 188.616C66.2446 189.541 67.2551 190.514 67.8359 191.534C68.3946 192.559 68.5317 193.721 68.2474 195.022C67.9495 196.314 67.2297 197.849 66.0878 199.625C64.946 201.402 63.8493 202.694 62.7977 203.502C61.7326 204.301 60.6223 204.653 59.4668 204.557C58.2891 204.465 56.9802 203.957 55.5399 203.031Z" fill="white"/>
<path d="M32.8507 182.775C32.3373 182.183 31.9206 181.665 31.6007 181.223C31.2581 180.779 30.9652 180.355 30.7218 179.952C30.4784 179.549 30.2487 179.113 30.0327 178.644L32.2528 177.101C32.5743 177.521 32.8758 177.906 33.1571 178.255C33.4279 178.592 33.7309 178.954 34.0662 179.341C34.3789 179.726 34.7658 180.185 35.2268 180.717C35.7612 181.333 36.3012 181.712 36.8469 181.853C37.3821 181.982 38.0149 181.857 38.7452 181.479C39.4635 181.11 40.3486 180.47 41.4006 179.559C42.4526 178.647 43.218 177.857 43.6969 177.188C44.1637 176.529 44.3713 175.926 44.3198 175.378C44.2577 174.818 43.9596 174.229 43.4252 173.613C42.7022 172.778 42.0824 172.087 41.5658 171.54C41.0491 170.993 40.5196 170.467 39.9772 169.963L41.8043 167.967C42.4886 168.39 43.129 168.873 43.7254 169.415C44.334 169.946 45.0259 170.659 45.8013 171.554C46.9224 172.848 47.6179 174.066 47.8878 175.208C48.1352 176.348 47.9392 177.503 47.2999 178.671C46.6501 179.827 45.5271 181.096 43.931 182.479C42.3348 183.862 40.9185 184.793 39.6819 185.272C38.4349 185.738 37.2705 185.763 36.1888 185.345C35.0846 184.926 33.9719 184.069 32.8507 182.775Z" fill="white"/>
<path d="M18.419 160.001C18.0468 159.186 17.6785 158.36 17.3142 157.524C16.9354 156.694 16.5777 155.872 16.2413 155.059C15.9048 154.245 15.6134 153.472 15.3672 152.74L17.8602 151.786L20.5023 157.572C20.6684 157.936 20.8893 158.169 21.1649 158.272C21.4339 158.36 21.7503 158.321 22.1142 158.155L29.7987 154.645C30.1626 154.479 30.3992 154.266 30.5087 154.005C30.6115 153.729 30.5798 153.409 30.4136 153.045L27.7716 147.26L30.125 146.001C30.5023 146.673 30.8955 147.399 31.3048 148.179C31.6994 148.967 32.0862 149.775 32.4651 150.605C32.8585 151.427 33.2413 152.246 33.6135 153.062C34.0522 154.022 34.1312 154.927 33.8507 155.776C33.549 156.618 32.9469 157.244 32.0446 157.657L22.9191 161.824C22.0022 162.243 21.1343 162.287 20.3154 161.958C19.4898 161.614 18.8577 160.961 18.419 160.001ZM25.8179 160.025L21.7003 151.009L24.058 149.932L28.1756 158.948L25.8179 160.025Z" fill="white"/>
<path d="M8.7675 128.619C8.65137 127.811 8.57251 126.925 8.53091 125.961C8.47347 125 8.51447 124.048 8.65391 123.107L11.0874 122.999C11.1717 123.699 11.2732 124.516 11.3917 125.453C11.5102 126.39 11.6343 127.309 11.7641 128.212C11.8279 128.656 11.8984 129.033 11.9756 129.346C12.0347 129.644 12.1333 129.881 12.2715 130.055C12.3939 130.231 12.5637 130.344 12.7809 130.394C12.9982 130.443 13.289 130.442 13.6532 130.389C14.2075 130.31 14.5932 130.125 14.8101 129.835C15.0248 129.53 15.1895 129.045 15.3043 128.382L15.8716 125.076C16.126 123.697 16.5969 122.7 17.2842 122.084C17.9715 121.468 18.9328 121.071 20.1681 120.894C21.1025 120.759 21.8945 120.759 22.544 120.891C23.1935 121.024 23.7267 121.303 24.1434 121.728C24.5601 122.153 24.8956 122.744 25.1497 123.499C25.4196 124.252 25.6354 125.191 25.7971 126.316C25.8745 126.854 25.9453 127.628 26.0096 128.637C26.0897 129.644 26.0795 130.809 25.9788 132.133L23.3791 132.264C23.2605 131.328 23.1682 130.517 23.1019 129.831C23.0176 129.132 22.948 128.536 22.8933 128.043C22.8227 127.552 22.7612 127.124 22.7088 126.76C22.6178 126.126 22.5076 125.641 22.3783 125.304C22.2467 124.951 22.0519 124.72 21.7939 124.612C21.5358 124.504 21.1851 124.481 20.7417 124.545C20.3616 124.6 20.0686 124.699 19.8628 124.841C19.6389 124.97 19.4807 125.163 19.3882 125.419C19.2775 125.661 19.1952 125.988 19.1413 126.4L18.4792 129.89C18.1998 131.207 17.7255 132.18 17.0563 132.81C16.3871 133.439 15.4428 133.842 14.2233 134.017C13.2731 134.154 12.489 134.153 11.8712 134.016C11.2352 133.865 10.7168 133.576 10.3159 133.148C9.91274 132.705 9.59316 132.113 9.35716 131.371C9.11889 130.613 8.92234 129.696 8.7675 128.619Z" fill="white"/>
<path d="M8.93736 98.1998C9.05349 97.3921 9.22737 96.52 9.45902 95.5834C9.67483 94.6446 9.98224 93.7432 10.3813 92.8792L12.7464 93.4617C12.6304 94.1562 12.4973 94.9696 12.3471 95.9017C12.1969 96.8338 12.057 97.7512 11.9272 98.6539C11.8634 99.0974 11.8246 99.4798 11.8107 99.801C11.7833 100.104 11.8114 100.359 11.8949 100.565C11.9626 100.769 12.0937 100.925 12.2882 101.034C12.4827 101.142 12.7621 101.223 13.1263 101.275C13.6806 101.355 14.1027 101.286 14.3925 101.069C14.6846 100.837 14.9791 100.418 15.2761 99.8144L16.7519 96.8017C17.3843 95.551 18.117 94.7269 18.9501 94.3294C19.7831 93.9319 20.8173 93.822 22.0526 93.9996C22.987 94.1339 23.7471 94.3563 24.3329 94.6669C24.9186 94.9774 25.3516 95.3953 25.6317 95.9205C25.9118 96.4457 26.0673 97.1065 26.0983 97.9031C26.1451 98.7018 26.0876 99.6635 25.926 100.788C25.8485 101.326 25.6985 102.089 25.4759 103.075C25.2691 104.064 24.9309 105.179 24.4614 106.421L21.9299 105.814C22.0801 104.882 22.22 104.078 22.3496 103.402C22.4656 102.707 22.5668 102.115 22.6533 101.627C22.7239 101.136 22.7853 100.708 22.8377 100.344C22.9288 99.7104 22.9598 99.2137 22.9307 98.8539C22.9039 98.4783 22.7819 98.2021 22.5649 98.0255C22.3478 97.8488 22.0176 97.7285 21.5741 97.6648C21.194 97.6101 20.8852 97.6223 20.6475 97.7013C20.3963 97.7621 20.1902 97.9023 20.0294 98.1216C19.855 98.3228 19.6839 98.6134 19.5161 98.9934L17.8976 102.155C17.2585 103.34 16.5292 104.141 15.7097 104.556C14.8902 104.972 13.8707 105.092 12.6512 104.917C11.701 104.78 10.9489 104.559 10.3948 104.253C9.8271 103.929 9.41114 103.505 9.14687 102.982C8.88488 102.444 8.74518 101.785 8.72778 101.007C8.71266 100.212 8.78252 99.2768 8.93736 98.1998Z" fill="white"/>
<path d="M39.2225 38.3109L44.1036 49.9396L41.8404 52.5515L29.6197 49.3933L32.1186 46.5093L38.5488 48.3973C38.8849 48.4981 39.2235 48.6327 39.5645 48.8011C39.9055 48.9695 40.2291 49.1335 40.5354 49.2931L40.6926 49.1117C40.5015 48.8191 40.2984 48.5161 40.0831 48.2025C39.8679 47.889 39.6812 47.5791 39.5232 47.2728L36.7236 41.1949L39.2225 38.3109ZM42.4796 48.4054L48.1386 53.309L45.734 56.0842L40.0749 51.1806L42.4796 48.4054Z" fill="white"/>
<path d="M57.2601 23.806C58.3638 23.0967 59.3771 22.6167 60.3001 22.3659C61.2143 22.1016 62.0776 22.0984 62.8899 22.3561C63.707 22.5918 64.526 23.1115 65.3469 23.9153C66.1591 24.7056 67.0151 25.8007 67.9147 27.2006C68.8143 28.6004 69.4592 29.8407 69.8494 30.9213C70.2309 31.9884 70.3634 32.9493 70.247 33.8039C70.1353 34.6364 69.7738 35.4204 69.1622 36.1557C68.5421 36.8776 67.6801 37.5932 66.5764 38.3025C65.4727 39.0118 64.4637 39.4986 63.5494 39.7629C62.6265 40.0136 61.7565 40.0212 60.9393 39.7856C60.1136 39.5365 59.2946 39.0167 58.4824 38.2264C57.6615 37.4226 56.8012 36.3208 55.9016 34.9209C55.002 33.5211 54.3614 32.2876 53.9799 31.2204C53.5897 30.1398 53.4572 29.1789 53.5823 28.3378C53.6987 27.4832 54.0671 26.6949 54.6872 25.973C55.2987 25.2377 56.1564 24.5153 57.2601 23.806ZM58.8301 26.249C58.1167 26.7075 57.649 27.2078 57.4268 27.75C57.2181 28.2835 57.2512 28.9564 57.526 29.7688C57.8057 30.5591 58.3477 31.5801 59.1522 32.8319C59.948 34.0702 60.6516 34.9874 61.2629 35.5836C61.8877 36.171 62.4861 36.4807 63.0581 36.5125C63.6436 36.5356 64.293 36.318 65.0064 35.8595C65.7063 35.4097 66.1606 34.918 66.3693 34.3845C66.5914 33.8423 66.5584 33.1694 66.2701 32.3657C65.9952 31.5533 65.4599 30.5279 64.6641 29.2896C63.8596 28.0378 63.1493 27.1249 62.5332 26.5509C61.9218 25.9548 61.3234 25.6452 60.738 25.622C60.166 25.5902 59.53 25.7992 58.8301 26.249Z" fill="white"/>
<path d="M91.5019 9.73423L94.3079 19.2908C94.7812 20.9027 94.9626 22.2586 94.8519 23.3583C94.7368 24.4427 94.284 25.3427 93.4936 26.0583C92.714 26.7542 91.5644 27.3252 90.0445 27.7715C88.4326 28.2448 87.0799 28.4085 85.9865 28.2626C84.8886 28.1014 83.9828 27.6003 83.2689 26.7594C82.5506 25.9031 81.9547 24.6689 81.4814 23.057L78.6754 13.5004L82.1986 12.4659L85.0047 22.0225C85.2977 23.0203 85.612 23.7785 85.9477 24.2969C86.2942 24.7955 86.7162 25.0968 87.2136 25.2009C87.7111 25.3049 88.3206 25.251 89.0421 25.0392C89.7637 24.8273 90.2979 24.5454 90.6448 24.1934C91.007 23.8369 91.1914 23.3575 91.198 22.7553C91.2155 22.1332 91.0777 21.3232 90.7847 20.3253L87.9786 10.7688L91.5019 9.73423Z" fill="white"/>
<path d="M114.907 7.2C116.363 7.2 117.539 7.352 118.435 7.656C119.347 7.944 120.011 8.448 120.427 9.168C120.859 9.872 121.075 10.856 121.075 12.12C121.075 12.888 120.971 13.568 120.763 14.16C120.571 14.736 120.243 15.2 119.779 15.552C119.315 15.904 118.683 16.128 117.883 16.224V16.344C118.171 16.392 118.467 16.504 118.771 16.68C119.091 16.856 119.387 17.12 119.659 17.472C119.931 17.808 120.131 18.264 120.259 18.84L121.699 24H117.835L116.563 18.96C116.419 18.416 116.203 18.04 115.915 17.832C115.643 17.624 115.259 17.52 114.763 17.52C113.675 17.52 112.755 17.52 112.003 17.52C111.267 17.504 110.643 17.488 110.131 17.472C109.635 17.456 109.187 17.44 108.787 17.424L108.859 14.76L114.835 14.76C115.475 14.76 115.979 14.696 116.347 14.568C116.731 14.424 116.995 14.176 117.139 13.824C117.299 13.472 117.379 12.984 117.379 12.36C117.379 11.72 117.299 11.232 117.139 10.896C116.995 10.544 116.731 10.304 116.347 10.176C115.979 10.032 115.475 9.96 114.835 9.96C113.331 9.96 112.059 9.968 111.019 9.984C109.979 10 109.267 10.024 108.883 10.056L108.523 7.44C109.195 7.36 109.827 7.304 110.419 7.272C111.011 7.24 111.659 7.224 112.363 7.224C113.067 7.208 113.915 7.2 114.907 7.2ZM112.147 7.44V24H108.523V7.44L112.147 7.44Z" fill="white"/>
<path d="M172.577 24.3395C173.788 25.118 174.681 25.8442 175.256 26.518C175.853 27.187 176.145 27.8878 176.131 28.6204C176.116 29.3529 175.802 30.197 175.188 31.1527C174.548 32.1487 173.864 32.7838 173.136 33.0579C172.43 33.3272 171.614 33.2211 170.687 32.7395L170.61 32.8607C171.626 33.6469 172.146 34.4948 172.17 35.4042C172.203 36.3002 171.86 37.3067 171.142 38.4239C170.528 39.3796 169.884 40.0118 169.21 40.3205C168.55 40.6378 167.801 40.6792 166.962 40.4448C166.146 40.2055 165.179 39.7269 164.062 39.0089C163.16 38.4294 162.377 37.9166 161.713 37.4706C161.053 37.0468 160.45 36.6397 159.902 36.2495C159.354 35.8592 158.796 35.4536 158.23 35.0326L159.908 33.0871C160.223 33.3082 160.833 33.7196 161.74 34.3212C162.66 34.9316 163.733 35.6303 164.957 36.4175C165.523 36.7808 166.001 37.0124 166.394 37.1123C166.786 37.2123 167.133 37.1598 167.436 36.955C167.761 36.7454 168.097 36.3714 168.443 35.833C168.815 35.2542 169.028 34.7735 169.084 34.3909C169.149 33.9948 169.051 33.6281 168.793 33.2907C168.548 32.9619 168.14 32.6048 167.57 32.2194L162.522 28.9756L163.781 27.0171L168.788 30.235C169.295 30.5416 169.72 30.7386 170.063 30.8261C170.419 30.9222 170.745 30.8745 171.039 30.6832C171.333 30.4918 171.636 30.1539 171.947 29.6693C172.267 29.1713 172.442 28.7512 172.472 28.4089C172.524 28.0619 172.425 27.7417 172.176 27.4486C171.927 27.1554 171.527 26.8315 170.975 26.4768C170.221 25.9924 169.555 25.5642 168.976 25.1922C168.397 24.8203 167.875 24.494 167.409 24.2133C166.951 23.9192 166.518 23.6602 166.111 23.4363L167.183 21.1015C167.756 21.3937 168.296 21.693 168.803 21.9996C169.331 22.3014 169.892 22.6426 170.484 23.0232C171.085 23.3904 171.783 23.8291 172.577 24.3395ZM170.212 23.0478L161.259 36.979L158.23 35.0326L167.183 21.1015L170.212 23.0478Z" fill="white"/>
<path d="M199.869 49.6423L192.342 56.1647C191.073 57.2649 189.915 57.9931 188.868 58.3493C187.834 58.695 186.827 58.657 185.848 58.2353C184.891 57.8153 183.894 57.0067 182.857 55.8096C181.757 54.5399 181.046 53.3775 180.724 52.3223C180.415 51.2567 180.494 50.2245 180.963 49.2258C181.443 48.2167 182.318 47.162 183.588 46.0619L191.115 39.5394L193.52 42.3146L185.993 48.837C185.207 49.518 184.648 50.1189 184.316 50.6396C184.006 51.1619 183.907 51.6709 184.019 52.1667C184.131 52.6624 184.433 53.1944 184.926 53.7628C185.418 54.3311 185.897 54.6999 186.361 54.8692C186.836 55.0506 187.348 55.0192 187.899 54.7751C188.472 54.5325 189.152 54.0707 189.938 53.3896L197.465 46.8672L199.869 49.6423Z" fill="white"/>
<path d="M212.099 70.1467C212.438 70.889 212.763 71.7167 213.074 72.6298C213.4 73.5363 213.629 74.4608 213.761 75.4034L211.456 76.192C211.178 75.545 210.85 74.7888 210.473 73.9235C210.095 73.0581 209.717 72.2107 209.338 71.3811C209.152 70.9736 208.978 70.6309 208.816 70.3531C208.675 70.0833 208.514 69.8843 208.332 69.7561C208.165 69.6214 207.97 69.5608 207.748 69.5744C207.525 69.5881 207.247 69.6713 206.912 69.8242C206.403 70.0568 206.085 70.3428 205.958 70.682C205.838 71.0357 205.817 71.5469 205.893 72.2155L206.281 75.5477C206.425 76.9418 206.254 78.0313 205.768 78.816C205.282 79.6008 204.472 80.2524 203.336 80.7708C202.478 81.163 201.718 81.3868 201.057 81.4423C200.397 81.4977 199.806 81.3803 199.287 81.0899C198.767 80.7995 198.279 80.3276 197.822 79.6743C197.351 79.0276 196.88 78.1876 196.408 77.1542C196.182 76.6594 195.896 75.9369 195.55 74.9867C195.189 74.0433 194.871 72.9222 194.594 71.6237L197.052 70.7653C197.43 71.6306 197.747 72.3828 198.003 73.022C198.281 73.669 198.516 74.2214 198.707 74.6792C198.913 75.1304 199.093 75.5234 199.246 75.8581C199.512 76.4403 199.754 76.8749 199.973 77.1618C200.199 77.4633 200.451 77.6297 200.729 77.661C201.007 77.6923 201.35 77.6149 201.757 77.4288C202.107 77.2693 202.36 77.092 202.517 76.8971C202.695 76.7101 202.793 76.4808 202.81 76.2093C202.848 75.9458 202.835 75.6088 202.77 75.1984L202.422 71.6635C202.319 70.321 202.5 69.2534 202.965 68.4607C203.43 67.668 204.222 67.0158 205.343 66.504C206.216 66.1052 206.969 65.8847 207.6 65.8425C208.253 65.8083 208.832 65.9397 209.337 66.2367C209.849 66.5483 210.322 67.0268 210.758 67.6722C211.2 68.3322 211.647 69.157 212.099 70.1467Z" fill="white"/>
<path d="M220.372 100.641L203.98 102.997L203.461 99.3864L219.852 97.0297L220.372 100.641Z" fill="white"/>
<path d="M219.114 136.105L204.029 133.937C203.158 133.811 202.785 133.313 202.91 132.442L203.197 130.447C203.254 130.051 203.385 129.762 203.589 129.582C203.808 129.403 204.113 129.253 204.502 129.131L213.754 125.83C214.145 125.692 214.577 125.56 215.047 125.434C215.516 125.324 215.965 125.235 216.395 125.167L216.433 124.906C215.998 124.892 215.557 124.869 215.109 124.837C214.677 124.807 214.247 124.761 213.819 124.7L204.222 123.32L204.717 119.875L219.802 122.044C220.673 122.17 221.045 122.676 220.918 123.562L220.634 125.534C220.579 125.914 220.443 126.186 220.226 126.348C220.022 126.529 219.724 126.688 219.333 126.826L210.363 130.022C209.971 130.16 209.539 130.3 209.066 130.442C208.593 130.584 208.105 130.716 207.603 130.838L207.562 131.123C208.044 131.143 208.509 131.17 208.957 131.202C209.418 131.252 209.871 131.309 210.314 131.373L219.606 132.685L219.114 136.105Z" fill="white"/>
<path d="M212.411 156.592C212.039 157.407 211.656 158.226 211.262 159.049C210.883 159.879 210.497 160.687 210.102 161.475C209.707 162.262 209.314 162.988 208.922 163.653L206.569 162.394L209.211 156.609C209.377 156.245 209.409 155.925 209.306 155.649C209.196 155.388 208.96 155.175 208.596 155.009L200.911 151.499C200.548 151.333 200.231 151.294 199.962 151.382C199.687 151.485 199.466 151.718 199.3 152.082L196.657 157.868L194.164 156.914C194.425 156.188 194.717 155.416 195.039 154.595C195.375 153.782 195.733 152.96 196.111 152.13C196.476 151.294 196.844 150.468 197.216 149.653C197.655 148.693 198.287 148.04 199.113 147.696C199.946 147.373 200.814 147.418 201.716 147.83L210.842 151.997C211.759 152.416 212.361 153.043 212.648 153.878C212.929 154.727 212.849 155.632 212.411 156.592ZM207.584 150.985L203.467 160.001L201.109 158.924L205.226 149.908L207.584 150.985Z" fill="white"/>
<path d="M195.014 184.437C194.48 185.054 193.862 185.694 193.161 186.356C192.472 187.029 191.726 187.621 190.923 188.133L189.248 186.364C189.721 185.842 190.273 185.23 190.903 184.527C191.534 183.824 192.147 183.128 192.745 182.439C193.038 182.1 193.277 181.799 193.463 181.537C193.65 181.296 193.764 181.067 193.805 180.849C193.858 180.641 193.832 180.438 193.727 180.242C193.623 180.045 193.431 179.826 193.153 179.585C192.73 179.218 192.338 179.048 191.977 179.074C191.605 179.112 191.131 179.304 190.555 179.652L187.684 181.388C186.476 182.099 185.414 182.396 184.499 182.28C183.583 182.164 182.653 181.697 181.71 180.88C180.997 180.262 180.478 179.664 180.153 179.086C179.828 178.508 179.69 177.922 179.738 177.329C179.786 176.736 180.013 176.096 180.417 175.409C180.81 174.712 181.378 173.934 182.122 173.075C182.478 172.664 183.016 172.104 183.737 171.394C184.445 170.675 185.333 169.919 186.399 169.128L188.201 171.007C187.571 171.71 187.018 172.311 186.543 172.81C186.07 173.332 185.665 173.775 185.328 174.139C185.004 174.514 184.721 174.84 184.48 175.118C184.061 175.602 183.766 176.003 183.596 176.322C183.415 176.652 183.369 176.95 183.456 177.216C183.543 177.482 183.756 177.762 184.094 178.055C184.385 178.307 184.651 178.464 184.894 178.526C185.138 178.61 185.387 178.604 185.641 178.506C185.896 178.431 186.197 178.279 186.544 178.05L189.615 176.265C190.793 175.614 191.84 175.335 192.754 175.428C193.668 175.522 194.59 175.972 195.521 176.779C196.247 177.407 196.76 178 197.061 178.557C197.363 179.137 197.484 179.718 197.424 180.301C197.353 180.895 197.114 181.525 196.708 182.189C196.291 182.866 195.727 183.615 195.014 184.437Z" fill="white"/>
<path d="M171.914 204.229C171.228 204.67 170.455 205.11 169.595 205.548C168.744 206 167.862 206.358 166.947 206.622L165.839 204.453C166.44 204.086 167.141 203.654 167.944 203.157C168.747 202.66 169.532 202.165 170.299 201.672C170.676 201.43 170.991 201.209 171.242 201.009C171.49 200.831 171.664 200.643 171.765 200.445C171.874 200.261 171.906 200.059 171.861 199.841C171.816 199.623 171.694 199.359 171.495 199.049C171.192 198.578 170.864 198.304 170.51 198.227C170.143 198.159 169.634 198.21 168.983 198.381L165.74 199.239C164.381 199.58 163.278 199.566 162.432 199.197C161.586 198.827 160.826 198.118 160.151 197.068C159.641 196.274 159.311 195.554 159.162 194.908C159.013 194.261 159.045 193.661 159.259 193.105C159.472 192.549 159.87 191.999 160.452 191.454C161.025 190.896 161.789 190.309 162.745 189.695C163.202 189.401 163.877 189.015 164.768 188.537C165.651 188.046 166.715 187.572 167.961 187.113L169.16 189.423C168.358 189.92 167.658 190.341 167.062 190.686C166.461 191.054 165.948 191.364 165.522 191.619C165.105 191.887 164.741 192.121 164.432 192.32C163.893 192.666 163.497 192.968 163.245 193.225C162.978 193.492 162.849 193.765 162.858 194.044C162.867 194.324 162.992 194.652 163.234 195.029C163.442 195.352 163.653 195.578 163.869 195.706C164.079 195.856 164.32 195.92 164.591 195.897C164.857 195.898 165.189 195.837 165.586 195.715L169.036 194.867C170.35 194.574 171.432 194.601 172.283 194.948C173.134 195.295 173.892 195.987 174.558 197.024C175.077 197.831 175.403 198.545 175.534 199.164C175.661 199.805 175.613 200.397 175.391 200.939C175.156 201.49 174.749 202.027 174.172 202.549C173.582 203.081 172.829 203.641 171.914 204.229Z" fill="white"/>
</svg>
