<svg width="498" height="300" viewBox="0 0 498 300" fill="none" xmlns="http://www.w3.org/2000/svg">
<path opacity="0.1" d="M260.396 137.378C260.396 157.1 277.132 173.089 297.777 173.089C318.423 173.089 335.159 157.1 335.159 137.378C335.159 117.655 318.423 101.667 297.777 101.667C277.132 101.667 260.396 117.655 260.396 137.378Z" fill="url(#paint0_radial_55_167)"/>
<path opacity="0.22" d="M387.807 160.624C387.807 171.191 396.773 179.756 407.833 179.756C418.894 179.756 427.86 171.191 427.86 160.624C427.86 150.058 418.894 141.493 407.833 141.493C396.773 141.493 387.807 150.058 387.807 160.624Z" fill="url(#paint1_radial_55_167)"/>
<path opacity="0.35" d="M340.867 126.017C340.867 132.785 346.61 138.272 353.695 138.272C360.779 138.272 366.522 132.785 366.522 126.017C366.522 119.249 360.779 113.763 353.695 113.763C346.61 113.763 340.867 119.249 340.867 126.017Z" fill="url(#paint2_radial_55_167)"/>
<path opacity="0.12" d="M127.255 76.8046C127.255 82.4317 132.03 86.9933 137.92 86.9933C143.811 86.9933 148.586 82.4317 148.586 76.8046C148.586 71.1775 143.811 66.6157 137.92 66.6157C132.03 66.6157 127.255 71.1775 127.255 76.8046Z" fill="url(#paint3_radial_55_167)"/>
<path opacity="0.2" d="M471.091 128.699C471.091 135.689 477.023 141.356 484.339 141.356C491.656 141.356 497.587 135.689 497.587 128.699C497.587 121.71 491.656 116.043 484.339 116.043C477.023 116.043 471.091 121.71 471.091 128.699Z" fill="url(#paint4_radial_55_167)"/>
<path opacity="0.1" d="M297.816 197.598C297.816 219.369 316.29 237.019 339.08 237.019C361.87 237.019 380.345 219.369 380.345 197.598C380.345 175.827 361.87 158.178 339.08 158.178C316.29 158.178 297.816 175.827 297.816 197.598Z" fill="white"/>
<path opacity="0.1" d="M201.593 47.636C201.593 73.9446 223.918 95.272 251.458 95.272C278.997 95.272 301.322 73.9446 301.322 47.636C301.322 21.3273 278.997 -9.7586e-07 251.458 -2.17965e-06C223.918 -3.38343e-06 201.593 21.3273 201.593 47.636Z" fill="white"/>
<path opacity="0.2" d="M199.541 243.717C193.84 227.344 203.772 209.816 221.238 205.424C237.057 201.448 253.616 210.011 258.78 224.838C264.481 241.21 254.549 258.738 237.083 263.13C221.264 267.107 204.705 258.544 199.541 243.717Z" fill="white"/>
<path opacity="0.2" d="M274.831 286.227C274.831 293.833 281.286 300 289.249 300C297.211 300 303.666 293.833 303.666 286.227C303.666 278.62 297.211 272.454 289.249 272.454C281.286 272.454 274.831 278.62 274.831 286.227Z" fill="white"/>
<path opacity="0.06" d="M371.679 77.9871C371.679 90.2282 382.066 100.152 394.88 100.152C407.694 100.152 418.081 90.2282 418.081 77.9871C418.081 65.746 407.694 55.8228 394.88 55.8228C382.066 55.8228 371.679 65.746 371.679 77.9871Z" fill="white"/>
<path opacity="0.2" d="M311.672 181.997C311.672 195.412 323.056 206.288 337.1 206.288C351.143 206.288 362.527 195.412 362.527 181.997C362.527 168.581 351.143 157.706 337.1 157.706C323.056 157.706 311.672 168.581 311.672 181.997Z" fill="white"/>
<path opacity="0.15" d="M306.733 150.314C306.733 163.73 318.117 174.606 332.16 174.606C346.203 174.606 357.588 163.73 357.588 150.314C357.588 136.899 346.203 126.023 332.16 126.023C318.117 126.023 306.733 136.899 306.733 150.314Z" fill="white"/>
<path opacity="0.5" d="M41.0277 236.152C41.0277 242.802 46.6708 248.193 53.632 248.193C60.5931 248.193 66.2363 242.802 66.2363 236.152C66.2363 229.502 60.5931 224.111 53.632 224.111C46.6708 224.111 41.0277 229.502 41.0277 236.152Z" fill="url(#paint5_radial_55_167)"/>
<path opacity="0.5" d="M89.9721 272.98C89.9721 277.239 93.5864 280.691 98.0448 280.691C102.503 280.691 106.118 277.239 106.118 272.98C106.118 268.72 102.503 265.268 98.0448 265.268C93.5864 265.268 89.9721 268.72 89.9721 272.98Z" fill="url(#paint6_radial_55_167)"/>
<path opacity="0.2" d="M0.587322 262.523C0.587322 266.922 4.32004 270.488 8.92455 270.488C13.5291 270.488 17.2617 266.922 17.2617 262.523C17.2617 258.124 13.5291 254.559 8.92455 254.559C4.32004 254.559 0.587322 258.124 0.587322 262.523Z" fill="url(#paint7_radial_55_167)"/>
<path opacity="0.1" d="M67.0707 207.293C67.0707 220.995 78.6979 232.102 93.0408 232.102C107.384 232.102 119.011 220.995 119.011 207.293C119.011 193.591 107.384 182.483 93.0408 182.483C78.6979 182.483 67.0707 193.591 67.0707 207.293Z" fill="white"/>
<path opacity="0.1" d="M130.356 236.747C130.356 253.304 144.406 266.727 161.738 266.727C179.07 266.727 193.121 253.304 193.121 236.747C193.121 220.189 179.07 206.767 161.738 206.767C144.406 206.767 130.356 220.189 130.356 236.747Z" fill="white"/>
<path opacity="0.2" d="M175.706 166.741C180.778 176.459 176.216 188.222 165.739 192.437C156.253 196.255 145.14 192.321 140.547 183.521C135.475 173.802 140.036 162.04 150.513 157.823C160 154.007 171.112 157.938 175.706 166.741Z" fill="white"/>
<path opacity="0.2" d="M106.793 147.849C106.793 152.636 110.855 156.517 115.866 156.517C120.877 156.517 124.94 152.636 124.94 147.849C124.94 143.062 120.877 139.182 115.866 139.182C110.855 139.182 106.793 143.062 106.793 147.849Z" fill="white"/>
<path opacity="0.2" d="M81.6868 272.744C81.6868 279.623 87.5243 285.2 94.7252 285.2C101.926 285.2 107.764 279.623 107.764 272.744C107.764 265.865 101.926 260.289 94.7252 260.289C87.5243 260.289 81.6868 265.865 81.6868 272.744Z" fill="white"/>
<path opacity="0.2" d="M79.7197 216.846C79.7197 225.29 86.8846 232.135 95.723 232.135C104.561 232.135 111.726 225.29 111.726 216.846C111.726 208.403 104.561 201.559 95.723 201.559C86.8846 201.559 79.7197 208.403 79.7197 216.846Z" fill="white"/>
<path opacity="0.2" d="M85.735 236.169C85.735 244.612 92.9003 251.457 101.739 251.457C110.578 251.457 117.743 244.612 117.743 236.169C117.743 227.725 110.578 220.88 101.739 220.88C92.9003 220.88 85.735 227.725 85.735 236.169Z" fill="white"/>
<defs>
<radialGradient id="paint0_radial_55_167" cx="0" cy="0" r="1" gradientUnits="userSpaceOnUse" gradientTransform="translate(297.778 137.378) rotate(-153.334) scale(45.3552 44.1638)">
<stop stop-color="white" stop-opacity="0"/>
<stop offset="0.4188" stop-color="white" stop-opacity="0.8587"/>
<stop offset="0.4877" stop-color="white"/>
<stop offset="0.5601" stop-color="white" stop-opacity="0.8587"/>
<stop offset="1" stop-color="white" stop-opacity="0"/>
</radialGradient>
<radialGradient id="paint1_radial_55_167" cx="0" cy="0" r="1" gradientUnits="userSpaceOnUse" gradientTransform="translate(407.834 160.624) rotate(164.132) scale(19.9556 19.2002)">
<stop offset="0.5813" stop-color="white"/>
<stop offset="0.9281" stop-color="white" stop-opacity="0.1413"/>
<stop offset="0.9852" stop-color="white" stop-opacity="0"/>
</radialGradient>
<radialGradient id="paint2_radial_55_167" cx="0" cy="0" r="1" gradientUnits="userSpaceOnUse" gradientTransform="translate(353.695 126.017) rotate(164.132) scale(12.7817 12.2979)">
<stop offset="0.5813" stop-color="white"/>
<stop offset="0.9281" stop-color="white" stop-opacity="0.1413"/>
<stop offset="0.9852" stop-color="white" stop-opacity="0"/>
</radialGradient>
<radialGradient id="paint3_radial_55_167" cx="0" cy="0" r="1" gradientUnits="userSpaceOnUse" gradientTransform="translate(137.921 76.8034) rotate(164.132) scale(10.6276 10.2253)">
<stop offset="0.5813" stop-color="white"/>
<stop offset="0.9281" stop-color="white" stop-opacity="0.1413"/>
<stop offset="0.9852" stop-color="white" stop-opacity="0"/>
</radialGradient>
<radialGradient id="paint4_radial_55_167" cx="0" cy="0" r="1" gradientUnits="userSpaceOnUse" gradientTransform="translate(484.339 128.698) rotate(164.132) scale(13.2006 12.7009)">
<stop offset="0.5813" stop-color="white"/>
<stop offset="0.9281" stop-color="white" stop-opacity="0.1413"/>
<stop offset="0.9852" stop-color="white" stop-opacity="0"/>
</radialGradient>
<radialGradient id="paint5_radial_55_167" cx="0" cy="0" r="1" gradientUnits="userSpaceOnUse" gradientTransform="translate(53.6327 236.152) rotate(-23.6871) scale(12.5075 12.1331)">
<stop offset="0.5813" stop-color="white"/>
<stop offset="0.9281" stop-color="white" stop-opacity="0.1413"/>
<stop offset="0.9852" stop-color="white" stop-opacity="0"/>
</radialGradient>
<radialGradient id="paint6_radial_55_167" cx="0" cy="0" r="1" gradientUnits="userSpaceOnUse" gradientTransform="translate(98.0444 272.98) rotate(-23.687) scale(8.01147 7.77165)">
<stop offset="0.5813" stop-color="white"/>
<stop offset="0.9281" stop-color="white" stop-opacity="0.1413"/>
<stop offset="0.9852" stop-color="white" stop-opacity="0"/>
</radialGradient>
<radialGradient id="paint7_radial_55_167" cx="0" cy="0" r="1" gradientUnits="userSpaceOnUse" gradientTransform="translate(8.92516 262.523) rotate(-23.6872) scale(8.27399 8.02634)">
<stop offset="0.5813" stop-color="white"/>
<stop offset="0.9281" stop-color="white" stop-opacity="0.1413"/>
<stop offset="0.9852" stop-color="white" stop-opacity="0"/>
</radialGradient>
</defs>
</svg>
