<svg width="501" height="344" viewBox="0 0 501 344" fill="none" xmlns="http://www.w3.org/2000/svg">
<path d="M314.871 344C314.871 302.361 298.33 262.427 268.887 232.984C239.444 203.541 199.51 187 157.871 187C116.232 187 76.2986 203.541 46.8553 232.984C17.4121 262.427 0.8711 302.361 0.871094 344L314.871 344Z" fill="#FDFDFD"/>
<mask id="path-2-inside-1_306_3" fill="white">
<path d="M116.871 0H476.871C490.126 0 500.871 10.7452 500.871 24V173H289.871C194.326 173 116.871 95.5453 116.871 0Z"/>
</mask>
<path d="M116.871 0H476.871C490.126 0 500.871 10.7452 500.871 24V173H289.871C194.326 173 116.871 95.5453 116.871 0Z" fill="white"/>
<path d="M116.871 0H500.871H116.871ZM500.871 193H289.871C183.28 193 96.8711 106.591 96.8711 0H136.871C136.871 84.4996 205.372 153 289.871 153H500.871V193ZM289.871 193C183.28 193 96.8711 106.591 96.8711 0H136.871C136.871 84.4996 205.372 153 289.871 153V193ZM500.871 0V173V0Z" fill="#0E5AF2" mask="url(#path-2-inside-1_306_3)"/>
</svg>
