<svg width="184" height="53" viewBox="0 0 184 53" fill="none" xmlns="http://www.w3.org/2000/svg">
<path d="M183.816 14.0701C184.131 12.4434 183.068 10.8695 181.441 10.5547L154.933 5.42407C153.306 5.10923 151.733 6.17268 151.418 7.79934C151.103 9.42601 152.166 10.9999 153.793 11.3147L177.356 15.8753L172.795 39.438C172.48 41.0647 173.544 42.6386 175.17 42.9534C176.797 43.2682 178.371 42.2048 178.686 40.5781L183.816 14.0701ZM0.177015 3.31983C8.58466 20.4818 27.833 41.533 58.3451 49.2827C88.9368 57.0526 130.269 51.3112 182.551 15.9858L179.192 11.0142C127.873 45.6888 88.2887 50.6974 59.8221 43.4673C31.2759 36.217 13.3242 16.5182 5.56517 0.680174L0.177015 3.31983Z" fill="white"/>
</svg>
