<svg width="41" height="40" viewBox="0 0 41 40" fill="none" xmlns="http://www.w3.org/2000/svg">
<path d="M20.8711 0C9.82547 0 0.871094 8.95438 0.871094 20C0.871094 31.0456 9.82547 40 20.8711 40C31.9167 40 40.8711 31.0456 40.8711 20C40.8711 8.95438 31.9167 0 20.8711 0ZM25.8711 3.24125C31.5048 4.92063 35.9355 9.36625 37.6173 15H29.5092C28.632 13.4935 27.3783 12.2409 25.8711 11.365V3.24125ZM28.3568 20.0081C28.3568 24.1463 25.0055 27.5006 20.8711 27.5006C16.7368 27.5006 13.3855 24.1463 13.3855 20.0081C13.3855 15.87 16.7374 12.515 20.8711 12.515C25.0049 12.515 28.3568 15.87 28.3568 20.0081ZM18.3711 2.6925C19.188 2.57563 20.0218 2.51188 20.8711 2.51188C21.7198 2.51188 22.5543 2.57563 23.3711 2.6925V10.3412C22.5711 10.1344 21.7361 10.0131 20.8711 10.0131C20.0061 10.0131 19.1718 10.1344 18.3711 10.3412V2.6925ZM15.8711 3.24125V11.365C14.3649 12.2394 13.1086 13.4956 12.233 15H4.12488C5.80613 9.36625 10.2374 4.92066 15.8711 3.24125ZM3.38301 20.0062C3.38301 19.1537 3.45547 18.3199 3.57363 17.4999H11.2061C10.9986 18.3012 10.8843 19.1399 10.8843 20.0068C10.8843 20.8687 10.998 21.7031 11.203 22.5H3.57176C3.45555 21.6843 3.38301 20.8537 3.38301 20.0062ZM15.8711 36.7705C10.233 35.0905 5.80051 30.6387 4.12113 24.9999H12.2255C13.1018 26.5099 14.3605 27.7712 15.8711 28.6481V36.7705ZM23.3711 37.3193C22.5543 37.4361 21.7198 37.4999 20.8711 37.4999C20.0218 37.4999 19.188 37.4355 18.3711 37.3193V29.6718C19.1718 29.8786 20.0061 29.9999 20.8711 29.9999C21.7361 29.9999 22.5711 29.8786 23.3711 29.6718V37.3193ZM25.8711 36.7705V28.648C27.3811 27.7712 28.6405 26.5099 29.5162 24.9999H37.6205C35.9411 30.638 31.5086 35.0905 25.8711 36.7705ZM30.5393 22.4999C30.7443 21.703 30.858 20.8687 30.858 20.0068C30.858 19.1398 30.7436 18.3011 30.5355 17.4999H38.1686C38.2861 18.3199 38.3593 19.1536 38.3593 20.0061C38.3593 20.8537 38.2874 21.6849 38.1705 22.4999H30.5393Z" fill="white"/>
</svg>
