<svg width="44" height="34" viewBox="0 0 44 34" fill="none" xmlns="http://www.w3.org/2000/svg">
<path fill-rule="evenodd" clip-rule="evenodd" d="M29.2145 9.86789C27.7175 8.36965 25.7183 7.3766 23.4912 7.1584C23.1853 7.14985 22.8768 7.1441 22.5683 7.1441C22.2599 7.1441 21.9513 7.14985 21.6455 7.1584C19.4184 7.3766 17.4193 8.36965 15.9223 9.86789C14.2216 11.567 13.1696 13.9179 13.1696 16.5124C13.1696 19.1072 14.2233 21.4579 15.9223 23.1571C17.4177 24.6553 19.4156 25.6485 21.6397 25.8666C21.9486 25.8752 22.2572 25.881 22.5684 25.881C22.8769 25.881 23.1854 25.8752 23.4926 25.8666C25.7114 25.6485 27.7032 24.6639 29.1974 23.1772L29.2146 23.1571C30.9136 21.4579 31.9672 19.1071 31.9672 16.5124C31.9672 13.9264 30.9221 11.5814 29.2318 9.88231L29.2145 9.86789ZM26.3254 11.5873C25.3655 10.6256 24.0367 10.0315 22.5683 10.0315C21.1 10.0315 19.7713 10.6256 18.8098 11.5873C17.8482 12.5488 17.254 13.8777 17.254 15.3472C17.254 17.7956 19.5115 20.04 21.4737 21.9919C21.8536 22.3706 22.2241 22.738 22.5684 23.0968C22.9114 22.738 23.2816 22.3707 23.662 21.9948C25.6237 20.04 27.883 17.7956 27.883 15.3472C27.8829 13.8777 27.2869 12.5488 26.3254 11.5873ZM22.5683 9.32543C24.2286 9.32543 25.7344 9.99996 26.8234 11.0906C27.9141 12.1784 28.5886 13.6823 28.5886 15.3471C28.5886 18.0852 26.218 20.4418 24.1573 22.4912C23.6835 22.9618 23.2273 23.4182 22.8255 23.8516C22.6936 23.9922 22.4711 24.0008 22.3288 23.8688L22.3073 23.8458C21.9068 23.4154 21.4506 22.9617 20.9786 22.4911C18.9189 20.4417 16.5484 18.0851 16.5484 15.347C16.5484 13.685 17.2228 12.1782 18.3107 11.0905C19.4012 9.99996 20.9065 9.32543 22.5683 9.32543ZM3.09234 0.611368C3.09234 0.41625 3.25031 0.258399 3.44566 0.258399C3.64066 0.258399 3.79852 0.41625 3.79852 0.611368V14.7273C5.95113 12.6464 8.4484 10.9213 11.1964 9.64418C13.3017 8.66824 15.5551 7.9534 17.9128 7.54301C16.99 8.02231 16.1522 8.6393 15.423 9.36856C13.5945 11.1969 12.4639 13.7225 12.4639 16.5124C12.4639 19.3025 13.5945 21.8282 15.4242 23.6565C16.1535 24.3857 16.9916 25.0025 17.9145 25.482C15.555 25.0714 13.3017 24.3568 11.1952 23.3781C7.69605 21.7536 4.60207 19.4 2.10773 16.5124C2.42648 16.1422 2.75379 15.7834 3.09223 15.4332L3.09234 0.611368ZM41.7258 17.9161V32.5198C41.7258 32.715 41.5678 32.873 41.3728 32.873C41.1792 32.873 41.0212 32.715 41.0212 32.5198V18.602C38.9401 20.5451 36.5536 22.164 33.9404 23.3781C31.835 24.357 29.5818 25.0714 27.2223 25.482C28.1353 25.0083 28.9678 24.3969 29.6907 23.6767L29.7125 23.6565C31.5407 21.8282 32.6716 19.3025 32.6716 16.5124C32.6716 13.7341 31.5493 11.217 29.7327 9.38848L29.7125 9.36856C28.9846 8.6393 28.1468 8.02231 27.2251 7.54301C29.5834 7.9534 31.835 8.66824 33.9404 9.64418C37.4407 11.2716 40.5347 13.6252 43.029 16.5124C42.6112 16.9947 42.1765 17.4654 41.7258 17.9161ZM11.5768 1.10801C11.3284 0.861094 10.9854 0.706055 10.6066 0.706055C10.2279 0.706055 9.88324 0.858281 9.63527 1.10496C9.38684 1.3548 9.23344 1.6991 9.23344 2.07797C9.23344 2.45684 9.38684 2.80137 9.63363 3.04816C9.88324 3.29789 10.2279 3.45 10.6066 3.45C10.9854 3.45 11.3284 3.29508 11.5768 3.04816C11.8235 2.80137 11.9787 2.45684 11.9787 2.07797C11.9787 1.70777 11.831 1.3691 11.5941 1.12219L11.5768 1.10801ZM10.6066 0C11.1791 0 11.7002 0.2325 12.0762 0.608438L12.0993 0.634453C12.4611 1.00758 12.685 1.5184 12.685 2.07797C12.685 2.65207 12.4509 3.16875 12.0763 3.54469C11.7004 3.92355 11.1793 4.15605 10.6068 4.15605C10.0327 4.15605 9.51316 3.92367 9.13734 3.54773C8.7614 3.16887 8.52867 2.65219 8.52867 2.07809C8.52867 1.50703 8.7614 0.987422 9.13734 0.611368C9.51305 0.2325 10.0341 0 10.6066 0ZM35.6163 28.4842C35.3696 28.2375 35.0254 28.0823 34.6461 28.0823C34.2761 28.0823 33.9388 28.2288 33.692 28.467L33.6763 28.4841C33.428 28.7339 33.2745 29.0754 33.2745 29.4541C33.2745 29.8331 33.428 30.1775 33.6746 30.4243C33.9244 30.6741 34.2673 30.8263 34.646 30.8263C35.0252 30.8263 35.3695 30.6741 35.6162 30.4243C35.8645 30.1775 36.018 29.8331 36.018 29.4541C36.018 29.0841 35.8733 28.7482 35.6351 28.5013L35.6163 28.4842ZM34.6461 27.3763C35.2202 27.3763 35.7414 27.6117 36.116 27.9848L36.1391 28.0106C36.5018 28.3839 36.7242 28.8947 36.7242 29.4543C36.7242 30.0282 36.492 30.5479 36.116 30.9239C35.7414 31.3 35.2202 31.5323 34.6461 31.5323C34.0737 31.5323 33.5543 31.3 33.1784 30.9239C32.8025 30.5479 32.5685 30.0282 32.5685 29.4543C32.5685 28.8804 32.8025 28.3608 33.1767 27.9848L33.2026 27.9619C33.5756 27.6001 34.0852 27.3763 34.6461 27.3763ZM29.5934 4.81055C29.7369 4.9425 29.7456 5.16656 29.6147 5.30707C29.4827 5.45074 29.2603 5.4593 29.1171 5.33004L26.9484 3.33234L26.9457 3.32953L26.944 3.32672L26.9313 3.31512L26.9255 3.30938L26.9197 3.30363H26.9184L26.9127 3.29508L26.9098 3.29227L26.9071 3.28945L26.9012 3.28359L26.8984 3.2809L26.8956 3.27797L26.8938 3.27516L26.8812 3.25805L26.8795 3.25523H26.8782C26.8396 3.19781 26.8178 3.12891 26.8178 3.05731C26.8178 3.00832 26.8263 2.96238 26.8437 2.9223H26.8453L26.8597 2.89078L26.8767 2.86207H26.8784V2.85926L26.8812 2.85645L26.8825 2.85363L26.887 2.84777L26.8882 2.84508H26.8898L26.8939 2.83922L26.8985 2.83336L26.9013 2.83066L26.9054 2.82492L26.9113 2.81918C26.9216 2.80758 26.9331 2.79609 26.9441 2.78473H26.9459L26.9528 2.77887L29.1173 0.784102C29.2605 0.652149 29.483 0.663634 29.6149 0.804259C29.7458 0.947931 29.7371 1.17176 29.5936 1.30371L28.0723 2.70434H40.424C40.6194 2.70434 40.7773 2.86231 40.7773 3.05754C40.7773 3.25254 40.6194 3.41051 40.424 3.41051H28.0719L29.5934 4.81055ZM6.5325 28.4497C6.38894 28.5791 6.16652 28.5703 6.03445 28.4269C5.90367 28.2863 5.91234 28.0624 6.05461 27.9304L7.57547 26.5297H1.22395C1.03023 26.5297 0.871094 26.3718 0.871094 26.1765C0.871094 25.9815 1.03023 25.8236 1.22395 25.8236H7.57559L6.05473 24.4228C5.91246 24.2907 5.90379 24.0669 6.03457 23.9264C6.16664 23.7829 6.38906 23.7742 6.53262 23.9034L8.69672 25.8982L8.70375 25.9039L8.70539 25.9068L8.71242 25.9126L8.71816 25.9184L8.72519 25.924L8.72684 25.9268L8.73258 25.9325L8.73832 25.9384L8.74406 25.9443L8.74816 25.95L8.75109 25.9528L8.75566 25.9584L8.75977 25.9642L8.76141 25.9671L8.76844 25.9757L8.77008 25.9785L8.77137 25.9814C8.80875 26.0359 8.83184 26.1048 8.83184 26.1764C8.83184 26.2482 8.81004 26.3172 8.77019 26.3745L8.76855 26.3773L8.7559 26.3945L8.75426 26.3973L8.75144 26.4002H8.75016L8.74852 26.4029L8.74277 26.4087L8.73984 26.4115L8.73574 26.4173L8.73 26.4231L8.72426 26.4288L8.71851 26.4346H8.71723L8.70574 26.4461L8.7041 26.449L8.70129 26.4517L6.5325 28.4497ZM4.79004 31.9371C4.59469 31.9371 4.43672 31.7764 4.43672 31.5841C4.43672 31.3888 4.59469 31.2311 4.79004 31.2311H25.3741C25.5677 31.2311 25.7257 31.3888 25.7257 31.5841C25.7257 31.7764 25.5677 31.9371 25.3741 31.9371H4.79004ZM14.3554 33.5531C14.1616 33.5531 14.002 33.3952 14.002 33.1999C14.002 33.0048 14.1616 32.8471 14.3554 32.8471H32.7519C32.9472 32.8471 33.1051 33.0048 33.1051 33.1999C33.1051 33.3952 32.9472 33.5531 32.7519 33.5531H14.3554ZM34.635 33.5531C34.4396 33.5531 34.2817 33.3952 34.2817 33.1999C34.2817 33.0048 34.4396 32.8471 34.635 32.8471H36.9353C37.129 32.8471 37.2886 33.0048 37.2886 33.1999C37.2886 33.3952 37.1291 33.5531 36.9353 33.5531H34.635ZM3.74215 33.5044C3.54715 33.5044 3.3893 33.3464 3.3893 33.1512C3.3893 32.9561 3.54727 32.7981 3.74215 32.7981H12.4594C12.6544 32.7981 12.8122 32.9561 12.8122 33.1512C12.8122 33.3464 12.6543 33.5044 12.4594 33.5044H3.74215ZM22.5683 11.8857C23.4797 11.8857 24.3047 12.2559 24.9032 12.8531C25.502 13.4501 25.8722 14.2766 25.8722 15.1894C25.8722 17.0121 24.3895 18.493 22.5684 18.493C21.6559 18.493 20.8291 18.1227 20.2308 17.5257L20.2106 17.5028C19.625 16.9088 19.2635 16.0907 19.2635 15.1894C19.2635 14.2767 19.6336 13.4501 20.2308 12.8531C20.8291 12.2559 21.6558 11.8857 22.5683 11.8857Z" fill="white"/>
</svg>
