<svg width="92" height="91" viewBox="0 0 92 91" fill="none" xmlns="http://www.w3.org/2000/svg">
<path d="M86.8103 38.1613C86.4111 35.9553 85.824 33.7713 85.0593 31.6372L89.4449 29.1053L82.1062 16.3947L77.7133 18.9309C76.2558 17.2151 74.6574 15.6168 72.9416 14.1593L75.4779 9.76635L62.7672 2.42765L60.2354 6.81326C58.0998 6.0471 55.9158 5.46147 53.7098 5.06077V0H39.0324V5.06077C36.8264 5.46 34.6424 6.0471 32.5083 6.81179L29.9764 2.42618L17.2658 9.76489L19.802 14.1578C18.0862 15.6153 16.4879 17.2137 15.0304 18.9295L10.636 16.3947L3.29727 29.1053L7.68288 31.6372C6.91819 33.7713 6.33256 35.9553 5.93187 38.1613H0.871094V52.8387H5.93187C6.33109 55.0447 6.91819 57.2287 7.68288 59.3628L3.29727 61.8947L10.636 74.6053L15.0289 72.0691C16.4864 73.7849 18.0848 75.3832 19.8006 76.8407L17.2643 81.2337L29.975 88.5724L32.5068 84.1867C34.6409 84.9514 36.8249 85.5385 39.0309 85.9378V91H53.7083V85.9392C55.9144 85.54 58.0984 84.9529 60.2324 84.1882L62.7643 88.5738L75.4749 81.2351L72.9387 76.8422C74.6545 75.3847 76.2529 73.7863 77.7103 72.0705L82.1033 74.6068L89.442 61.8961L85.0564 59.3643C85.8211 57.2302 86.4082 55.0462 86.8074 52.8402H91.8711V52.8387V38.1613H86.8103ZM88.9356 49.9032H84.299L84.1126 51.1567C83.6943 53.9791 82.9428 56.7767 81.8802 59.4744L81.4178 60.6515L85.4336 62.9691L81.0303 70.594L77.0087 68.2735L76.2206 69.2613C74.4285 71.5084 72.381 73.5574 70.1338 75.348L69.146 76.1362L71.4665 80.1578L63.8416 84.561L61.5226 80.5453L60.3455 81.0076C57.6478 82.0703 54.8502 82.8203 52.0278 83.2401L50.7743 83.4279V88.0645H41.9679V83.4279L40.7144 83.2415C37.8919 82.8232 35.0944 82.0717 32.3967 81.0091L31.2196 80.5467L28.9006 84.5625L21.2756 80.1593L23.5961 76.1376L22.6084 75.3495C20.3612 73.5574 18.3123 71.5099 16.5216 69.2627L15.7334 68.2749L11.7118 70.5955L7.30861 62.9705L11.3244 60.6515L10.862 59.4744C9.79937 56.7767 9.04935 53.9791 8.62958 51.1567L8.44317 49.9032H3.80658V41.0968H8.44317L8.62958 39.8433C9.04788 37.0209 9.79937 34.2233 10.862 31.5256L11.3244 30.3485L7.30861 28.0295L11.7118 20.4045L15.7334 22.725L16.5216 21.7373C18.3137 19.4901 20.3612 17.4412 22.6084 15.6505L23.5961 14.8624L21.2756 10.8407L28.9006 6.43752L31.2196 10.4533L32.3967 9.99092C35.0944 8.92828 37.8919 8.17826 40.7144 7.75848L41.9679 7.57208V2.93548H50.7743V7.57208L52.0278 7.75848C54.8502 8.17679 57.6478 8.92828 60.3455 9.99092L61.5226 10.4533L63.8416 6.43752L71.4665 10.8407L69.146 14.8624L70.1338 15.6505C72.381 17.4426 74.4299 19.4901 76.2206 21.7373L77.0087 22.725L81.0303 20.4045L85.4336 28.0295L81.4178 30.3485L81.8802 31.5256C82.9428 34.2233 83.6928 37.0209 84.1126 39.8433L84.299 41.0968H88.9356V49.9032Z" fill="white"/>
<path d="M47.839 67.5161H44.9036V70.4516H47.839V67.5161Z" fill="white"/>
<path d="M47.839 79.2581H44.9036V82.1935H47.839V79.2581Z" fill="white"/>
<path d="M18.4839 31.3378V62.5993L44.9032 74.3427V76.3227H47.8387V74.3412L74.2581 62.5978V31.3378L46.371 18.9427L18.4839 31.3378ZM55.1774 45.5001C55.1774 48.3695 53.7655 51.0702 51.4024 52.7228L50.7742 53.1602V55.7743H47.8387V49.6332C49.5428 49.0256 50.7742 47.4111 50.7742 45.5001C50.7742 43.0724 48.7986 41.0968 46.371 41.0968C43.9433 41.0968 41.9678 43.0724 41.9678 45.5001C41.9678 47.4111 43.1992 49.0256 44.9032 49.6332V55.7743H41.9678V53.1602L41.3396 52.7228C38.9765 51.0702 37.5645 48.3695 37.5645 45.5001C37.5645 40.6433 41.5142 36.6936 46.371 36.6936C51.2277 36.6936 55.1774 40.6433 55.1774 45.5001ZM50.7742 58.7097V61.6452H41.9678V58.7097H50.7742ZM44.9032 45.5001C44.9032 44.6899 45.5608 44.0323 46.371 44.0323C47.1812 44.0323 47.8387 44.6899 47.8387 45.5001C47.8387 46.3103 47.1812 46.9678 46.371 46.9678C45.5608 46.9678 44.9032 46.3103 44.9032 45.5001ZM44.9032 22.8073V33.8594C41.7432 34.2557 38.975 35.9113 37.1081 38.3081L23.5652 32.2904L44.9032 22.8073ZM71.3226 60.6927L46.371 71.78L21.4194 60.6912V34.5492L35.5934 40.8488C34.9754 42.2769 34.629 43.8489 34.629 45.5001C34.629 49.0681 36.2612 52.4352 39.0323 54.6588V55.7743H36.0968V58.7097H39.0323V64.5807H53.7097V58.7097H56.6452V55.7743H53.7097V54.6588C56.4808 52.4337 58.1129 49.0667 58.1129 45.5001C58.1129 43.8489 57.7665 42.2769 57.1486 40.8488L71.3226 34.5492V60.6927ZM47.8387 22.8073L69.1768 32.2904L55.6339 38.3096C53.7669 35.9113 50.9988 34.2572 47.8387 33.8594V22.8073Z" fill="white"/>
</svg>
