<svg width="65" height="84" viewBox="0 0 65 84" fill="none" xmlns="http://www.w3.org/2000/svg">
<path d="M62.2108 66.435C60.2071 63.4189 57.1614 61.7428 54.2937 60.6603C52.8549 60.1172 51.4469 59.7215 50.2049 59.3875C48.9641 59.0556 47.8803 58.7829 47.1438 58.5214C46.0237 58.1299 44.6904 57.5255 43.7265 56.8505C43.243 56.5152 42.8571 56.1625 42.6296 55.8602L42.4768 55.6261C42.2678 55.6965 42.0668 55.7756 41.8514 55.8383C41.2843 56.0064 40.683 56.1428 40.061 56.2635C40.2049 56.6658 40.4127 57.0353 40.6578 57.3572C41.0997 57.9321 41.6559 58.4092 42.2604 58.8356L33.3793 72.5947L24.0432 58.1299L22.9087 58.8643L33.3793 75.0865L43.4046 59.5524C44.3762 60.0931 45.4018 60.5328 46.3217 60.857C46.4798 60.9131 46.658 60.9636 46.8273 61.0165L49.9567 70.6582L43.6169 69.1667L33.3795 77.7433L23.142 69.1657L16.8022 70.6584L20.1941 60.2099C21.0768 59.8154 21.9506 59.3658 22.7233 58.8272C23.3356 58.3973 23.8928 57.9148 24.3292 57.3235C24.7633 56.7377 25.0821 56.0045 25.0799 55.1879C25.0799 53.8744 25.0799 52.2323 25.0799 49.9823V49.5064L24.7621 49.1535C23.0739 47.2728 20.7877 44.7777 19.9952 40.3406L19.8699 39.6316L19.193 39.3898C18.7621 39.2359 18.4335 39.0788 18.1466 38.8799C17.7234 38.581 17.3399 38.1731 16.8915 37.3367C16.4485 36.5057 15.9791 35.2649 15.4659 33.4633C15.2405 32.6742 15.1604 32.063 15.1604 31.6081C15.1616 31.2091 15.2185 30.9354 15.2923 30.7418C17.3049 33.2622 19.5823 33.6974 19.5823 33.6974C36.4652 27.695 41.342 17.5653 41.342 17.5653C41.342 17.5653 41.9422 31.3244 46.8477 34.5404V39.2118L46.8521 39.2382C46.5663 39.4184 46.252 39.5647 45.8639 39.7086L45.3716 39.8845L45.2804 40.3988C44.4735 44.9306 42.1203 47.5005 40.4321 49.3787L40.2013 49.636V49.9823C40.2013 50.401 40.2013 50.7792 40.2013 51.1573C40.8618 50.977 41.4577 50.7551 42.0017 50.4935V50.3264C43.6351 48.5116 46.0136 45.7232 46.94 41.209L47.2391 41.0628C47.2633 40.8408 47.281 40.6078 47.2995 40.3791C47.6017 40.7552 48.0381 41.0695 48.5723 41.2915C48.4109 42.7402 48.1635 44.0338 47.8271 45.1539C46.8741 48.2842 45.3508 50.1682 43.2163 51.3903C41.4039 52.4224 39.0638 52.9501 36.2291 53.0874C35.8511 52.6357 35.2903 52.3434 34.6551 52.3434H31.6545C30.5159 52.3434 29.5914 53.2666 29.5914 54.4076C29.5914 55.5462 30.5157 56.4707 31.6545 56.4707H34.6551C35.4608 56.4707 36.151 56.0046 36.4906 55.3321C38.2855 55.2376 39.9496 54.9912 41.4741 54.5417C44.5198 53.6547 47.0236 51.8709 48.6394 49.0032C49.7506 47.0401 50.4574 44.6023 50.7992 41.6236C52.5842 41.4895 53.9758 40.4684 53.9758 39.212V29.4582C53.9758 28.3767 52.9425 27.471 51.5192 27.1511C55.541 14.4043 45.2597 3.09187 34.2275 2.58737C32.6558 1.04418 30.3871 -0.0978741 27.1524 0.006635C22.5799 0.153965 19.6486 3.62393 18.2801 7.7303C13.956 11.4828 11.7061 16.9675 12.4535 23.193C12.7173 25.3869 13.2527 27.1148 13.9111 28.4964C13.6396 28.746 13.3825 29.0339 13.1835 29.4076C12.8602 30.0099 12.6834 30.753 12.6845 31.6081C12.6857 32.349 12.812 33.1821 13.0857 34.1427C13.8089 36.6619 14.4618 38.2886 15.3071 39.4823C15.7292 40.0746 16.2106 40.5507 16.7338 40.9133C17.0514 41.1343 17.3812 41.3035 17.7143 41.4541C18.1343 43.3974 18.8233 45.0087 19.5961 46.376C19.318 50.5483 17.3241 54.6217 12.1307 53.583C12.1307 56.2022 15.282 58.1378 16.6998 58.8776C15.7985 59.1412 14.6807 59.4282 13.4563 59.7832C10.7886 60.5623 7.62642 61.6671 5.05012 63.8622C3.76402 64.9591 2.63411 66.3397 1.83938 68.0576C1.04252 69.7744 0.587402 71.8157 0.587402 74.2074C0.587402 74.7603 0.611684 75.3319 0.662216 75.9255C0.698638 76.3432 0.856796 76.6805 1.04252 76.9586C1.39657 77.4797 1.86579 77.8656 2.4538 78.2623C3.4838 78.9438 4.9105 79.6099 6.7372 80.2639C12.203 82.2133 21.2544 83.9971 32.4712 84.0004C41.5842 83.9993 49.276 82.8165 54.7662 81.3317C57.513 80.5876 59.7057 79.772 61.2908 78.9576C62.0843 78.5476 62.7263 78.142 63.2351 77.6979C63.49 77.4736 63.7133 77.2383 63.9012 76.9581C64.0859 76.6802 64.2452 76.3427 64.2815 75.925C64.3322 75.3314 64.3563 74.7575 64.3563 74.2036C64.3596 71.0141 63.5429 68.4409 62.2108 66.435ZM41.5249 81.1063C38.7122 81.3678 35.6885 81.524 32.4712 81.524C29.4276 81.524 26.5623 81.3811 23.8791 81.1449L20.9181 71.0777L22.7943 70.6359L33.3791 79.5049L43.9639 70.6359L44.5618 70.7767L41.5249 81.1063Z" fill="white"/>
</svg>
