<svg width="49" height="48" viewBox="0 0 49 48" fill="none" xmlns="http://www.w3.org/2000/svg">
<path fill-rule="evenodd" clip-rule="evenodd" d="M27.7185 13.7003C27.347 13.72 26.9924 13.8618 26.7099 14.1038C26.4274 14.3458 26.2327 14.6744 26.1562 15.0385C26.0646 15.4764 26.1505 15.9328 26.3953 16.3073C26.64 16.6819 27.0235 16.9439 27.4614 17.0358C30.2169 17.6163 31.9509 20.2789 31.3703 23.0343C31.2787 23.4722 31.3647 23.9286 31.6094 24.3032C31.8542 24.6777 32.2376 24.9397 32.6755 25.0316C33.113 25.1234 33.569 25.0378 33.9434 24.7937C34.3179 24.5497 34.5802 24.167 34.6728 23.7297C35.6294 19.1895 32.6971 14.6898 28.1568 13.7333C28.0128 13.7032 27.8654 13.6921 27.7185 13.7003Z" fill="#0E5AF2"/>
<path fill-rule="evenodd" clip-rule="evenodd" d="M29.0204 7.10193C28.6662 7.14028 28.3332 7.28976 28.0691 7.52895C27.8051 7.76814 27.6235 8.08476 27.5504 8.43347C27.4587 8.87093 27.5442 9.3269 27.7883 9.70136C28.0323 10.0758 28.415 10.3382 28.8523 10.4308C35.2556 11.7799 39.3244 18.0219 37.9753 24.4252C37.9295 24.6422 37.9268 24.8662 37.9676 25.0843C38.0084 25.3024 38.0918 25.5103 38.213 25.6961C38.3343 25.882 38.491 26.0421 38.6741 26.1673C38.8573 26.2925 39.0634 26.3803 39.2805 26.4258C39.7184 26.5175 40.1748 26.4315 40.5494 26.1867C40.9239 25.942 41.186 25.5585 41.2778 25.1206C43.003 16.9325 37.7358 8.85341 29.5477 7.12829C29.3744 7.0919 29.1965 7.08298 29.0204 7.10193Z" fill="#0E5AF2"/>
<path fill-rule="evenodd" clip-rule="evenodd" d="M30.2794 0.516675C29.9517 0.578621 29.6497 0.736285 29.4115 0.969758C29.1734 1.20323 29.0097 1.50203 28.9413 1.82844C28.8495 2.2659 28.9351 2.72188 29.1791 3.09633C29.4232 3.47079 29.8059 3.73314 30.2432 3.82576C40.2943 5.9434 46.6979 15.7649 44.5803 25.816C44.5344 26.0331 44.5318 26.257 44.5726 26.4751C44.6134 26.6932 44.6968 26.9011 44.818 27.087C44.9392 27.2728 45.0959 27.4329 45.2791 27.5581C45.4623 27.6833 45.6683 27.7711 45.8855 27.8166C46.3234 27.9083 46.7799 27.8223 47.1544 27.5775C47.5289 27.3328 47.7909 26.9493 47.8828 26.5114C50.3765 14.6755 42.7745 3.01694 30.9386 0.523267C30.7215 0.477705 30.4975 0.475569 30.2794 0.516675Z" fill="#0E5AF2"/>
<path fill-rule="evenodd" clip-rule="evenodd" d="M9.36694 0.394654C7.70489 0.364617 6.15779 1.12558 5.23059 2.66223C-0.320644 11.8623 -0.49007 23.4155 4.92407 32.823C4.92519 32.8264 4.92631 32.8298 4.92744 32.8331C10.3895 42.2145 20.503 47.8379 31.265 47.6416C33.3158 47.6043 34.8953 46.3601 35.6057 44.5468L38.0314 38.3571C38.9001 36.1397 38.2377 33.5956 36.3967 32.085L32.0428 28.5155C29.8026 26.6773 26.3735 27.2929 24.9105 29.7943L23.279 32.5793C20.503 31.1298 18.0229 29.0609 16.3774 26.2249V26.2215C14.6569 23.2419 14.1314 19.8986 14.357 16.6304L17.4453 16.8282C20.3297 17.0134 22.6965 14.3926 22.2211 11.5415L21.2982 6.00772C20.9065 3.65932 19.0378 1.81686 16.6839 1.45938L10.0855 0.457431C9.84491 0.420812 9.60437 0.398873 9.36694 0.394654ZM9.57788 3.79273L16.1763 4.79798C17.0999 4.93821 17.8156 5.64308 17.9692 6.56458L18.8921 12.0984C19.0227 12.8818 18.452 13.5105 17.6594 13.4596L12.7848 13.1465C12.3659 13.1199 11.9522 13.2504 11.6243 13.5124C11.2965 13.7745 11.078 14.1493 11.0116 14.5637C10.2953 19.0394 11.0659 23.773 13.4572 27.9121C13.4572 27.9132 13.4572 27.9144 13.4572 27.9155C15.7418 31.8544 19.2299 34.7962 23.2229 36.4651C23.5999 36.6222 24.021 36.6374 24.4083 36.5077C24.7956 36.378 25.1227 36.1123 25.329 35.7598L27.824 31.4949C28.2713 30.73 29.2187 30.5604 29.9037 31.1224L34.2543 34.6952C34.9749 35.2865 35.2271 36.2563 34.8871 37.1243L32.4646 43.3139C32.3477 43.6126 31.4223 44.2625 31.2056 44.2665C21.6569 44.4406 12.6901 39.4554 7.84424 31.1323C3.04632 22.7878 3.20093 12.5634 8.12109 4.40911C8.23297 4.22365 9.26031 3.7445 9.57788 3.79273Z" fill="#0E5AF2"/>
</svg>
