<svg width="28" height="42" viewBox="0 0 28 42" fill="none" xmlns="http://www.w3.org/2000/svg">
<path d="M24.4961 9.1875C24.4961 9.05625 24.4961 9.05625 24.4961 8.925L23.5773 3.28125C23.1836 1.44375 21.6086 0 19.6398 0H8.35234C6.38359 0 4.80859 1.44375 4.41484 3.28125L3.49609 8.925C3.49609 9.05625 3.49609 9.05625 3.49609 9.1875C1.92109 10.3687 0.871094 12.3375 0.871094 14.4375V27.5625C0.871094 29.6625 1.92109 31.6313 3.49609 32.8125C3.49609 32.9437 3.49609 32.9438 3.49609 33.075L4.41484 38.7188C4.67734 40.6875 6.38359 42 8.35234 42H19.6398C21.6086 42 23.1836 40.5563 23.5773 38.7188L24.4961 33.075C24.4961 32.9438 24.4961 32.9437 24.4961 32.8125C26.0711 31.6313 27.1211 29.6625 27.1211 27.5625V14.4375C27.1211 12.3375 26.0711 10.3687 24.4961 9.1875ZM24.4961 27.5625C24.4961 29.7938 22.7898 31.5 20.5586 31.5H7.43359C5.20234 31.5 3.49609 29.7938 3.49609 27.5625V14.4375C3.49609 12.2063 5.20234 10.5 7.43359 10.5H20.5586C22.7898 10.5 24.4961 12.2063 24.4961 14.4375V27.5625Z" fill="#0E5AF2"/>
<path d="M20.5586 19.6875H18.7211L16.4898 15.225C16.2273 14.7 15.8336 14.4375 15.3086 14.4375C14.7836 14.4375 14.3898 14.7 14.1273 15.225L10.4523 23.625H7.43359C6.64609 23.625 6.12109 24.15 6.12109 24.9375C6.12109 25.725 6.64609 26.25 7.43359 26.25H11.3711C11.8961 26.25 12.4211 25.9875 12.5523 25.4625L15.4398 18.9L16.7523 21.6562C17.0148 22.05 17.4086 22.4438 17.9336 22.4438H20.5586C21.3461 22.4438 21.8711 21.9188 21.8711 21.1313C21.8711 20.3438 21.3461 19.6875 20.5586 19.6875Z" fill="#0E5AF2"/>
</svg>
