<svg width="30" height="42" viewBox="0 0 30 42" fill="none" xmlns="http://www.w3.org/2000/svg">
<path d="M24.231 39.0265C24.231 39.0265 24.6337 36.6053 22.1502 33.6486C24.5675 26.8604 24.9029 20.6787 24.9029 20.6787C24.9029 20.6787 29.8711 21.8219 29.8711 26.7268C29.8699 35.1276 24.231 39.0265 24.231 39.0265ZM10.537 36.077C10.537 36.077 7.20962 25.3875 7.20962 20.9531C7.20962 18.9579 7.43441 17.1829 7.78421 15.5716H22.9423C23.2946 17.1841 23.5205 18.9603 23.5205 20.9543C23.5205 25.3213 20.2028 36.077 20.2028 36.077H10.537ZM15.3585 18.0156C13.6539 18.0156 12.2715 19.3995 12.2715 21.1071C12.2715 22.8135 13.6539 24.1986 15.3585 24.1986C17.063 24.1986 18.4466 22.8147 18.4466 21.1071C18.4478 19.3995 17.0642 18.0156 15.3585 18.0156ZM14.6949 4.20939V0H15.897V4.10229C17.271 5.10349 20.989 8.2876 22.6707 14.4212H8.05348C9.67868 8.45608 13.2176 5.30686 14.6949 4.20939ZM6.51002 39.0265C6.51002 39.0265 0.871094 35.1276 0.871094 26.7268C0.871094 21.8219 5.83926 20.6787 5.83926 20.6787C5.83926 20.6787 6.17464 26.8604 8.5908 33.6486C6.10612 36.6065 6.51002 39.0265 6.51002 39.0265ZM17.4032 39.6474L16.3959 38.639L15.3224 42L14.0458 38.639L13.1731 40.3851L11.8965 37.2262H18.8108L17.4032 39.6474Z" fill="#0E5AF2"/>
</svg>
