<svg width="43" height="42" viewBox="0 0 43 42" fill="none" xmlns="http://www.w3.org/2000/svg">
<path fill-rule="evenodd" clip-rule="evenodd" d="M40.2599 36.7482C40.2599 38.1977 39.0835 39.3741 37.634 39.3741H6.12294C4.67343 39.3741 3.49702 38.1977 3.49702 36.7482V15.7408C3.49702 14.2913 4.67343 13.1149 6.12294 13.1149H37.634C39.0835 13.1149 40.2599 14.2913 40.2599 15.7408V36.7482ZM37.634 10.4889H25.4839L37.0012 2.56526C37.6091 2.14642 37.7823 1.28242 37.3885 0.636444C36.9959 -0.00953279 36.1832 -0.194614 35.574 0.22422C35.574 0.22422 22.9564 8.93572 21.8903 9.57907L8.18297 0.22422C7.57507 -0.194614 6.76105 -0.00953279 6.36848 0.636444C5.97459 1.28242 6.14788 2.14642 6.75578 2.56526L18.2731 10.4889H6.12294C3.22261 10.4889 0.871094 12.8405 0.871094 15.7408V36.7482C0.871094 39.6485 3.22261 42 6.12294 42H37.634C40.5343 42 42.8858 39.6485 42.8858 36.7482V15.7408C42.8858 12.8405 40.5343 10.4889 37.634 10.4889ZM36.321 30.1834H31.0692C30.3431 30.1834 29.7562 30.7702 29.7562 31.4963C29.7562 32.2224 30.3431 32.8093 31.0692 32.8093H36.321C37.0471 32.8093 37.634 32.2224 37.634 31.4963C37.634 30.7702 37.0471 30.1834 36.321 30.1834ZM24.5044 32.8093C24.5044 33.5353 23.9175 34.1222 23.1914 34.1222H10.0618C9.33575 34.1222 8.74886 33.5353 8.74886 32.8093V19.6797C8.74886 18.9549 9.33575 18.3667 10.0618 18.3667H23.1914C23.9175 18.3667 24.5044 18.9549 24.5044 19.6797V32.8093ZM24.5044 15.7408H8.74886C7.29935 15.7408 6.12294 16.9172 6.12294 18.3667V34.1222C6.12294 35.5717 7.29935 36.7482 8.74886 36.7482H24.5044C25.9539 36.7482 27.1303 35.5717 27.1303 34.1222V18.3667C27.1303 16.9172 25.9539 15.7408 24.5044 15.7408ZM36.321 34.1222H31.0692C30.3431 34.1222 29.7562 34.7091 29.7562 35.4352C29.7562 36.1613 30.3431 36.7482 31.0692 36.7482H36.321C37.0471 36.7482 37.634 36.1613 37.634 35.4352C37.634 34.7091 37.0471 34.1222 36.321 34.1222ZM32.3822 18.3667H35.0081V20.9926H32.3822V18.3667ZM33.6951 15.7408C31.5195 15.7408 29.7562 17.5041 29.7562 19.6797C29.7562 21.8552 31.5195 23.6185 33.6951 23.6185C35.8707 23.6185 37.634 21.8552 37.634 19.6797C37.634 17.5041 35.8707 15.7408 33.6951 15.7408Z" fill="#0E5AF2"/>
</svg>
