<svg width="37" height="42" viewBox="0 0 37 42" fill="none" xmlns="http://www.w3.org/2000/svg">
<path d="M24.3442 3.51792L24.8035 2.82899L25.2628 2.15646L26.2798 0.630951C26.411 0.450515 26.3618 0.188061 26.165 0.0732385C25.9846 -0.0579876 25.7221 -0.00877577 25.6073 0.188063L24.5247 1.81199L24.0654 2.50092L23.6061 3.18986C22.1298 2.61574 20.5059 2.30408 18.7671 2.30408C17.0448 2.30408 15.4045 2.61574 13.9282 3.18986L13.4689 2.50092L13.0096 1.81199L11.927 0.188063C11.7957 0.00762749 11.5497 -0.0415843 11.3692 0.0732385C11.1888 0.204465 11.1396 0.450515 11.2544 0.630951L12.2714 2.15646L12.7307 2.82899L13.19 3.51792C9.74532 5.12544 7.39966 8.16005 7.39966 11.6539H30.151C30.1346 8.16005 27.8053 5.12544 24.3442 3.51792ZM13.8789 8.3897C13.2064 8.3897 12.6651 7.84839 12.6651 7.17585C12.6651 6.50332 13.2064 5.96201 13.8789 5.96201C14.5515 5.96201 15.0928 6.50332 15.0928 7.17585C15.0928 7.84839 14.5515 8.3897 13.8789 8.3897ZM23.6225 8.3897C22.95 8.3897 22.4086 7.84839 22.4086 7.17585C22.4086 6.50332 22.95 5.96201 23.6225 5.96201C24.295 5.96201 24.8363 6.50332 24.8363 7.17585C24.8527 7.84839 24.3114 8.3897 23.6225 8.3897Z" fill="#0E5AF2"/>
<path d="M7.54713 13.2615L7.3667 13.2779V15.2955V16.9522V31.1574C7.3667 32.5845 8.51493 33.7327 9.94201 33.7327H11.7956C11.73 33.946 11.6972 34.1756 11.6972 34.4053V34.5365V35.3567V39.5559C11.6972 40.901 12.7962 42 14.1412 42C15.4863 42 16.5853 40.901 16.5853 39.5559V35.3567V34.5365V34.4053C16.5853 34.1756 16.5525 33.946 16.4869 33.7327H21.0142C20.9486 33.946 20.9158 34.1756 20.9158 34.4053V34.5365V35.3567V39.5559C20.9158 40.901 22.0148 42 23.3599 42C24.7049 42 25.804 40.901 25.804 39.5559V35.3567V34.5365V34.4053C25.804 34.1756 25.7712 33.946 25.7055 33.7327H27.5591C28.9862 33.7327 30.1344 32.5845 30.1344 31.1574V16.9522V15.2955V13.2615H29.954H7.54713Z" fill="#0E5AF2"/>
<path d="M3.31518 13.2779C1.97011 13.2779 0.871094 14.3769 0.871094 15.722V26.1544C0.871094 27.4995 1.97011 28.5985 3.31518 28.5985C4.66025 28.5985 5.75927 27.4995 5.75927 26.1544V15.722C5.74286 14.3605 4.66025 13.2779 3.31518 13.2779Z" fill="#0E5AF2"/>
<path d="M34.2025 13.2779C32.8574 13.2779 31.7584 14.3769 31.7584 15.722V26.1544C31.7584 27.4995 32.8574 28.5985 34.2025 28.5985C35.5476 28.5985 36.6466 27.4995 36.6466 26.1544V15.722C36.6302 14.3605 35.5476 13.2779 34.2025 13.2779Z" fill="#0E5AF2"/>
</svg>
