<svg width="47" height="47" viewBox="0 0 47 47" fill="none" xmlns="http://www.w3.org/2000/svg">
<path d="M29.5937 43.1992C25.3783 44.6179 20.8216 44.6629 16.579 43.3276C12.3365 41.9923 8.62696 39.3456 5.9841 35.7682C3.34124 32.1909 1.90134 27.8674 1.87156 23.4198C1.84179 18.9722 3.22369 14.6298 5.81842 11.0174C8.41315 7.40502 12.0869 4.70887 16.3112 3.31688C20.5355 1.9249 25.0924 1.90885 29.3264 3.27104C33.5603 4.63324 37.253 7.30345 39.8731 10.8975C42.4933 14.4915 43.9057 18.824 43.9073 23.2717C43.8393 24.9766 43.6329 26.6731 43.2901 28.3445" stroke="#0E5AF2" stroke-width="2.8125"/>
<path d="M27.8435 39.2932C26.3315 41.0111 24.6739 42.5952 22.8892 44.0277" stroke="#0E5AF2" stroke-width="2.8125"/>
<path d="M22.8892 2.00848C28.5626 6.96533 32.0732 13.944 32.6711 21.454C32.7939 22.8173 32.8193 24.1876 32.7472 25.5545" stroke="#0E5AF2" stroke-width="2.8125"/>
<path d="M22.8893 2.00848C19.811 4.69153 17.3381 7.99804 15.6342 11.709C13.9303 15.4199 13.0344 19.4505 13.0059 23.5338C13.0059 37.2303 19.1608 41.2885 22.8639 44.0277" stroke="#0E5AF2" stroke-width="2.8125"/>
<path d="M4.60193 12.9149H41.2779" stroke="#0E5AF2" stroke-width="2.8125"/>
<path d="M22.8892 2V44.0277" stroke="#0E5AF2" stroke-width="2.8125"/>
<path d="M5.17688 34.5417H27.1503" stroke="#0E5AF2" stroke-width="2.8125"/>
<path d="M1.87109 23.5338L43.9073 23.0181" stroke="#0E5AF2" stroke-width="2.8125"/>
<path d="M41.1257 44.2813L44.871 40.5275L38.1074 33.7638L41.9542 31.3036C42.0103 31.2704 42.0549 31.221 42.0823 31.162C42.1096 31.1029 42.1184 31.0369 42.1074 30.9727C42.0964 30.9085 42.0662 30.8492 42.0207 30.8026C41.9752 30.756 41.9166 30.7243 41.8528 30.7117L28.9257 27.685C28.8723 27.6741 28.8171 27.6766 28.7649 27.6923C28.7127 27.708 28.6653 27.7364 28.6267 27.7749C28.5882 27.8135 28.5598 27.8609 28.5441 27.9131C28.5284 27.9653 28.5259 28.0205 28.5368 28.0739L31.3437 41.2461C31.3572 41.3102 31.3894 41.3687 31.4363 41.4144C31.4832 41.46 31.5426 41.4907 31.607 41.5025C31.6713 41.5143 31.7378 41.5067 31.7978 41.4806C31.8578 41.4545 31.9087 41.4111 31.944 41.3561L34.362 37.5177L41.1257 44.2813Z" stroke="#0E5AF2" stroke-width="2.8125"/>
</svg>
