<svg width="35" height="42" viewBox="0 0 35 42" fill="none" xmlns="http://www.w3.org/2000/svg">
<path fill-rule="evenodd" clip-rule="evenodd" d="M27.0745 0L27.1958 1.15642C27.5005 4.0388 26.5073 7.25298 24.5433 9.75649C24.5136 9.79116 24.4789 9.81592 24.4517 9.8506C24.7786 9.83821 25.1055 9.81345 25.4448 9.84565C26.9259 9.90756 30.8192 10.4722 33.3653 14.2683L34.0563 15.3009L33.021 15.9893C32.1294 16.5539 29.3927 18.5869 29.4298 22.4003C29.4719 27.2291 33.3653 28.9996 33.8086 29.1853L34.8711 29.631L34.5145 30.7305C34.2197 31.6814 33.3702 34.1156 31.7108 36.5918C30.1282 38.9492 28.1617 41.8861 24.8355 41.948C23.2653 41.9876 22.2623 41.5147 21.3434 41.111C20.4691 40.7247 19.7187 40.3929 18.4754 40.3929C17.1603 40.3929 16.3652 40.7371 15.4439 41.1383C14.5796 41.5147 13.5988 41.9406 12.2391 41.9975C12.1772 42 12.1153 42 12.0583 42C8.83612 42 6.59718 38.6991 5.10621 36.5027L4.99273 36.3335C1.26428 30.7137 -0.820452 21.5637 2.61963 15.4693C4.51428 12.109 7.96185 9.98679 11.6174 9.93232C13.0415 9.9125 14.3517 10.3582 15.4811 10.804C15.6743 8.18158 16.9225 5.73503 18.2178 4.15518C20.1001 1.8473 23.2628 0.158484 25.9129 0.049525L27.0745 0ZM25.264 12.3145C23.6517 12.1436 22.1062 12.78 20.7317 13.3347C19.6939 13.7532 18.7998 14.1123 17.9701 14.1123C17.2618 14.1123 16.5188 13.8721 15.7461 13.57L15.6272 13.5601L15.6222 13.5229C15.4588 13.4561 15.2953 13.3917 15.1269 13.3248C14.0421 12.884 12.8508 12.307 11.6595 12.4086C8.87821 12.4507 6.24054 14.09 4.77681 16.6876C1.60664 22.3013 4.2592 30.8419 7.15693 35.111C8.69741 37.3817 10.332 39.6252 12.14 39.5237C13.0366 39.4866 13.6607 39.2142 14.4557 38.87C15.4811 38.4218 16.6451 37.9166 18.4754 37.9166C20.2413 37.9166 21.3583 38.4094 22.344 38.8452C23.1588 39.2068 23.835 39.5113 24.7885 39.4717C26.6782 39.4371 27.9983 37.6839 29.6527 35.2125C30.7375 33.5955 31.431 32.0033 31.8248 30.941C30.148 29.9356 26.9977 27.3875 26.9531 22.4226C26.916 18.4829 29.0806 15.9769 30.5765 14.7189C28.7091 12.6934 26.3017 12.3591 25.264 12.3145ZM24.7588 2.72637C23.0845 3.17459 21.2865 4.31119 20.1373 5.72018L20.1348 5.72265C19.1169 6.96574 18.0346 9.02105 17.9231 11.1358C19.7757 10.8584 21.5391 9.56583 22.5966 8.22618C23.8746 6.59925 24.6399 4.62072 24.7588 2.72637Z" fill="#0E5AF2"/>
</svg>
