<svg width="48" height="47" viewBox="0 0 48 47" fill="none" xmlns="http://www.w3.org/2000/svg">
<path d="M2.43359 14.8438H0.871094V11.7188C0.872257 10.6831 1.28418 9.6902 2.01649 8.95793C2.7488 8.22562 3.7417 7.81369 4.77734 7.81253H31.3398V6.25003H29.7774C29.6228 6.25004 29.4718 6.20422 29.3433 6.11837C29.2148 6.03253 29.1147 5.91051 29.0555 5.76776C28.9964 5.625 28.9809 5.46791 29.0111 5.31636C29.0412 5.16481 29.1156 5.0256 29.2249 4.91634L33.9124 0.228837C33.985 0.156287 34.0711 0.098737 34.1659 0.059473C34.2607 0.020209 34.3622 0 34.4648 0C34.5675 0 34.669 0.020209 34.7638 0.059473C34.8586 0.098737 34.9447 0.156287 35.0173 0.228837L39.7048 4.91634C39.8141 5.0256 39.8885 5.16481 39.9186 5.31636C39.9488 5.46791 39.9333 5.625 39.8742 5.76776C39.815 5.91051 39.7149 6.03253 39.5864 6.11837C39.4579 6.20422 39.3069 6.25004 39.1524 6.25003H37.5898V7.81253H40.7148C41.7505 7.81369 42.7434 8.22562 43.4757 8.95793C44.208 9.6902 44.6199 10.6831 44.6211 11.7188V27.3438H43.0586V11.7188C43.0579 11.0974 42.8107 10.5017 42.3713 10.0623C41.9319 9.6229 41.3362 9.37575 40.7148 9.37503H37.5898V23.4375H36.0274V5.46878C36.0274 5.26158 36.1097 5.06287 36.2562 4.91635C36.4027 4.76984 36.6014 4.68753 36.8086 4.68753H37.2663L34.4648 1.88606L31.6634 4.68753H32.1211C32.3283 4.68753 32.527 4.76984 32.6735 4.91635C32.82 5.06287 32.9024 5.26158 32.9024 5.46878V24.2188H31.3398V9.37503H4.77734C4.15596 9.37575 3.56024 9.6229 3.12086 10.0623C2.68148 10.5017 2.43431 11.0974 2.43359 11.7188V14.8438ZM4.77734 39.0625H17.7898L15.9148 45.3125H14.1524V46.875H31.3398V45.3125H29.5774L28.5726 41.9629L27.0759 42.4121L27.9461 45.3125H17.5457L19.4207 39.0625H25.0898V37.5H4.77734C4.15596 37.4993 3.56024 37.2522 3.12086 36.8128C2.68148 36.3734 2.43431 35.7777 2.43359 35.1563V34.375H24.3086V32.8125H2.43359V16.4063H0.871094V35.1563C0.872257 36.1919 1.28418 37.1848 2.01649 37.9171C2.7488 38.6495 3.7417 39.0614 4.77734 39.0625ZM28.2148 25.7813V13.2813H25.0898V31.25H4.77734V29.6875H7.90234V23.4375C7.90234 23.2303 7.98465 23.0316 8.13116 22.8851C8.27768 22.7386 8.47639 22.6563 8.68359 22.6563H13.3711C13.5783 22.6563 13.777 22.7386 13.9235 22.8851C14.07 23.0316 14.1524 23.2303 14.1524 23.4375V29.6875H15.7148V17.9688C15.7148 17.7616 15.7972 17.5629 15.9437 17.4164C16.0902 17.2698 16.2889 17.1875 16.4961 17.1875H21.1836C21.3908 17.1875 21.5895 17.2698 21.736 17.4164C21.8825 17.5629 21.9648 17.7616 21.9648 17.9688V29.6875H23.5274V12.5C23.5274 12.2928 23.6097 12.0941 23.7562 11.9476C23.9027 11.8011 24.1014 11.7188 24.3086 11.7188H28.9961C29.2033 11.7188 29.402 11.8011 29.5485 11.9476C29.695 12.0941 29.7774 12.2928 29.7774 12.5V25.7813H28.2148ZM12.5898 24.2188H9.46484V29.6875H12.5898V24.2188ZM20.4024 18.75H17.2774V29.6875H20.4024V18.75ZM4.77734 10.9375V12.5H6.33984V10.9375H4.77734ZM9.46484 10.9375H7.90234V12.5H9.46484V10.9375ZM11.0274 10.9375V12.5H12.5898V10.9375H11.0274ZM47.0593 42.8744C47.4974 43.3148 47.7441 43.9101 47.7461 44.5313C47.7464 44.8392 47.686 45.1441 47.5683 45.4285C47.4506 45.713 47.278 45.9715 47.0603 46.1892C46.8426 46.4069 46.5841 46.5795 46.2996 46.6972C46.0151 46.8149 45.7102 46.8753 45.4024 46.875C44.7819 46.8696 44.1878 46.6234 43.7454 46.1882L40.0059 42.4488C38.0388 43.6091 35.7161 44.0122 33.4732 43.5824C31.2302 43.1526 29.221 41.9194 27.8223 40.1141C26.4235 38.3088 25.7313 36.0553 25.8753 33.7761C26.0194 31.4969 26.9898 29.3484 28.6046 27.7336C30.2195 26.1187 32.3679 25.1483 34.6472 25.0043C36.9264 24.8602 39.1799 25.5525 40.9852 26.9512C42.7905 28.3499 44.0236 30.3591 44.4534 32.6021C44.8832 34.8451 44.4802 37.1678 43.3198 39.1348L47.0593 42.8744ZM43.0586 34.375C43.0586 32.8299 42.6004 31.3194 41.742 30.0346C40.8835 28.7499 39.6634 27.7485 38.2358 27.1572C36.8083 26.5659 35.2374 26.4112 33.722 26.7127C32.2065 27.0141 30.8144 27.7582 29.7218 28.8508C28.6292 29.9434 27.8852 31.3354 27.5837 32.8509C27.2823 34.3664 27.437 35.9372 28.0283 37.3648C28.6196 38.7923 29.6209 40.0124 30.9057 40.8709C32.1905 41.7293 33.7009 42.1875 35.2461 42.1875C37.3174 42.1852 39.3032 41.3613 40.7678 39.8967C42.2324 38.4321 43.0562 36.4463 43.0586 34.375ZM45.9543 43.9793L42.4009 40.4257C42.0639 40.8236 41.6946 41.1928 41.2968 41.5298L44.8504 45.0832C44.9221 45.1588 45.0083 45.2193 45.1038 45.261C45.1993 45.3028 45.3021 45.325 45.4063 45.3263C45.5106 45.3277 45.614 45.3081 45.7105 45.2689C45.807 45.2296 45.8947 45.1714 45.9684 45.0978C46.0421 45.0241 46.1003 44.9364 46.1396 44.8398C46.1788 44.7433 46.1983 44.6399 46.197 44.5357C46.1956 44.4315 46.1734 44.3286 46.1317 44.2331C46.0899 44.1376 46.0299 44.0511 45.9543 43.9793ZM41.4961 34.375C41.4961 35.6112 41.1295 36.8195 40.4428 37.8474C39.756 38.8752 38.7799 39.6762 37.6379 40.1493C36.4958 40.6223 35.2392 40.7461 34.0268 40.5049C32.8144 40.2638 31.7008 39.6685 30.8267 38.7945C29.9526 37.9204 29.3573 36.8067 29.1162 35.5944C28.875 34.382 28.9988 33.1253 29.4719 31.9833C29.9449 30.8412 30.746 29.8651 31.7738 29.1784C32.8016 28.4916 34.01 28.125 35.2461 28.125C36.9031 28.1269 38.4918 28.786 39.6635 29.9577C40.8352 31.1294 41.4942 32.718 41.4961 34.375ZM39.9336 34.375C39.9336 33.4479 39.6587 32.5417 39.1436 31.7708C38.6285 30.9999 37.8965 30.3991 37.0399 30.0444C36.1834 29.6896 35.2409 29.5967 34.3316 29.7776C33.4223 29.9585 32.5871 30.4049 31.9315 31.0605C31.276 31.716 30.8295 32.5513 30.6487 33.4605C30.4678 34.3698 30.5606 35.3123 30.9154 36.1689C31.2702 37.0254 31.871 37.7575 32.6419 38.2726C33.4127 38.7876 34.319 39.0625 35.2461 39.0625C36.4889 39.0612 37.6804 38.5669 38.5591 37.6881C39.4379 36.8093 39.9322 35.6178 39.9336 34.375ZM32.1211 34.375H33.6836C33.6841 33.9608 33.8489 33.5636 34.1418 33.2707C34.4347 32.9778 34.8319 32.813 35.2461 32.8125V31.25C34.4176 31.251 33.6233 31.5805 33.0374 32.1664C32.4516 32.7522 32.122 33.5465 32.1211 34.375ZM42.2774 4.68753H43.8398C43.8385 3.44475 43.3442 2.25326 42.4654 1.37448C41.5866 0.4957 40.3951 0.00139801 39.1524 2.80142e-05V1.56253C39.9809 1.56346 40.7752 1.893 41.361 2.47885C41.9469 3.0647 42.2764 3.85901 42.2774 4.68753Z" fill="white"/>
</svg>
