<svg width="44" height="44" viewBox="0 0 44 44" fill="none" xmlns="http://www.w3.org/2000/svg">
<path d="M38.0378 30.6708V27.8888C38.0366 26.9683 37.6705 26.0858 37.0195 25.4349C36.3686 24.7839 35.486 24.4177 34.5655 24.4166H28.7196C29.3625 23.2309 29.881 21.9819 30.2669 20.6895L32.9058 18.5777C33.316 18.2502 33.6158 17.8049 33.7649 17.3016C33.9139 16.7983 33.9051 16.2615 33.7395 15.7635C33.5739 15.2654 33.2594 14.8302 32.8387 14.5165C32.4179 14.2027 31.9109 14.0256 31.3863 14.009L32.9336 9.75486C33.3283 8.66917 33.4556 7.5043 33.3046 6.35898C33.1536 5.21366 32.7287 4.12162 32.066 3.17537C31.4033 2.22913 30.5222 1.45658 29.4975 0.923155C28.4728 0.389742 27.3347 0.111182 26.1794 0.111085H20.2835C15.872 0.109984 11.549 1.34979 7.80856 3.68886C7.69617 3.75848 7.60599 3.85873 7.54862 3.97782C7.49124 4.09692 7.46905 4.22993 7.48466 4.3612C7.50026 4.49248 7.55302 4.61657 7.63672 4.7189C7.72042 4.82123 7.83159 4.89754 7.95717 4.93886L9.63145 5.49442C9.86194 5.57129 10.0742 5.69444 10.2554 5.8563C10.4365 6.01816 10.5827 6.21532 10.6849 6.4357C10.7871 6.65607 10.8433 6.89501 10.8499 7.13785C10.8564 7.38068 10.8133 7.62231 10.7231 7.84789C10.5568 8.26376 10.4803 8.71015 10.4988 9.15771C10.5174 9.60517 10.6306 10.0438 10.8307 10.4444L12.6211 14.0215C12.1089 14.0622 11.6209 14.2561 11.2203 14.5778C10.8196 14.8995 10.5251 15.3342 10.3747 15.8255C10.2243 16.3168 10.2251 16.842 10.3771 17.3327C10.5291 17.8236 10.825 18.2574 11.2267 18.5777L13.8655 20.6895C14.251 21.9819 14.7691 23.2309 15.4114 24.4166H9.5655C8.64495 24.4177 7.76241 24.7839 7.11148 25.4349C6.46056 26.0858 6.09438 26.9683 6.09328 27.8888V30.6708C4.44969 31.3574 3.04557 32.5142 2.05718 33.9961C1.06879 35.478 0.540183 37.2188 0.53772 38.9999V42.4722C0.53772 42.6564 0.610884 42.833 0.741115 42.9632C0.871355 43.0934 1.04799 43.1666 1.23216 43.1666H42.8988C43.083 43.1666 43.2596 43.0934 43.3899 42.9632C43.5201 42.833 43.5933 42.6564 43.5933 42.4722V38.9999C43.5908 37.2188 43.0622 35.478 42.0739 33.9961C41.0854 32.5142 39.6813 31.3574 38.0378 30.6708ZM27.6211 13.9999H23.4544C23.2702 13.9999 23.0936 14.0732 22.9634 14.2034C22.8331 14.3336 22.7599 14.5102 22.7599 14.6944V15.3888H21.3711V14.6944C21.3711 14.5102 21.2979 14.3336 21.1676 14.2034C21.0374 14.0732 20.8608 13.9999 20.6766 13.9999H14.4266V12.9826L18.7613 10.093C19.6941 9.46988 20.7909 9.1378 21.9127 9.13886C23.5176 9.137 25.0744 8.59077 26.3287 7.58955L27.4635 6.68192L28.6544 8.46944C29.3401 9.49539 29.7056 10.7021 29.7044 11.9361V13.9999H27.6211ZM26.9267 15.3888V17.4722C26.9267 17.6564 26.8534 17.833 26.7232 17.9632C26.593 18.0934 26.4163 18.1666 26.2322 18.1666H24.8433C24.6591 18.1666 24.4825 18.0934 24.3523 17.9632C24.222 17.833 24.1489 17.6564 24.1489 17.4722V15.3888H26.9267ZM19.9821 15.3888V17.4722C19.9821 17.6564 19.909 17.833 19.7787 17.9632C19.6485 18.0934 19.4719 18.1666 19.2877 18.1666H17.8988C17.7147 18.1666 17.538 18.0934 17.4078 17.9632C17.2776 17.833 17.2043 17.6564 17.2043 17.4722V15.3888H19.9821ZM32.4822 16.5694C32.4826 16.7466 32.4428 16.9215 32.3661 17.0812C32.2894 17.2409 32.1777 17.3812 32.0391 17.4917L30.7801 18.4986C30.9636 17.4718 31.0646 16.4318 31.0821 15.3888H31.3016C31.4566 15.3888 31.6101 15.4194 31.7534 15.4787C31.8966 15.5381 32.0267 15.625 32.1364 15.7346C32.246 15.8443 32.333 15.9744 32.3923 16.1176C32.4516 16.2609 32.4822 16.4144 32.4822 16.5694ZM12.012 8.36384C12.1724 7.96263 12.2492 7.53284 12.2377 7.10088C12.226 6.66891 12.1263 6.24387 11.9445 5.85182C11.7628 5.45978 11.5029 5.109 11.1807 4.82101C10.8586 4.53302 10.481 4.31389 10.071 4.17706L9.85856 4.10761C13.0665 2.39496 16.6471 1.49933 20.2835 1.49997H26.1794C27.1111 1.50015 28.0291 1.72484 28.8555 2.15503C29.682 2.58522 30.3927 3.20823 30.9273 3.97131C31.4619 4.73439 31.8048 5.61506 31.9269 6.53875C32.049 7.46245 31.9467 8.40197 31.6287 9.27771L31.0252 10.9374C30.8744 9.77797 30.4586 8.66873 29.8099 7.6958L28.1988 5.27844C28.1454 5.19837 28.0758 5.1303 27.9947 5.07853C27.9135 5.02677 27.8225 4.99245 27.7273 4.97775C27.6322 4.96339 27.5352 4.96874 27.4422 4.99347C27.3493 5.0182 27.2624 5.06178 27.187 5.1215L25.4613 6.50553C24.4531 7.30948 23.2022 7.74814 21.9127 7.74997C20.5166 7.7487 19.1515 8.162 17.9905 8.93744L13.3467 12.0333C13.3037 12.0625 13.2641 12.0966 13.2287 12.1347L12.0731 9.82286C11.9605 9.59779 11.8969 9.35139 11.8863 9.09993C11.8758 8.84846 11.9187 8.59762 12.012 8.36384ZM12.0926 17.493C11.9009 17.3405 11.7614 17.132 11.6936 16.8966C11.6257 16.6612 11.6327 16.4105 11.7137 16.1792C11.7947 15.948 11.9455 15.7478 12.1454 15.6061C12.3453 15.4645 12.5844 15.3886 12.8294 15.3888H13.0475C13.0649 16.4323 13.1659 17.4726 13.3495 18.4999L12.0926 17.493ZM14.4378 15.3888H15.8155V17.4722C15.8155 18.0247 16.035 18.5546 16.4257 18.9454C16.8164 19.336 17.3463 19.5555 17.8988 19.5555H19.2877C19.8403 19.5555 20.3701 19.336 20.7609 18.9454C21.1515 18.5546 21.3711 18.0247 21.3711 17.4722V16.7777H22.7599V17.4722C22.7599 18.0247 22.9795 18.5546 23.3701 18.9454C23.7609 19.336 24.2907 19.5555 24.8433 19.5555H26.2322C26.7847 19.5555 27.3146 19.336 27.7053 18.9454C28.096 18.5546 28.3155 18.0247 28.3155 17.4722V15.3888H29.6932C29.6394 18.5718 28.7507 21.6849 27.1162 24.4166H17.0148C15.3803 21.6849 14.4916 18.5718 14.4378 15.3888ZM9.5655 25.8055H34.5655C35.118 25.8055 35.6479 26.025 36.0387 26.4158C36.4293 26.8064 36.6488 27.3363 36.6488 27.8888V41.7777H7.48216V27.8888C7.48216 27.3363 7.70166 26.8064 8.09236 26.4158C8.48306 26.025 9.01296 25.8055 9.5655 25.8055ZM1.92661 38.9999C1.92849 37.5928 2.31844 36.2135 3.05356 35.0136C3.78868 33.8138 4.84048 32.84 6.09328 32.1993V41.7777H1.92661V38.9999ZM42.2043 41.7777H38.0378V32.1993C39.2905 32.84 40.3422 33.8139 41.0773 35.0137C41.8124 36.2135 42.2024 37.5928 42.2043 38.9999V41.7777Z" fill="white"/>
<path d="M22.0655 39.6945C22.6149 39.6945 23.152 39.5315 23.6088 39.2263C24.0656 38.9211 24.4216 38.4873 24.6318 37.9797C24.8421 37.4721 24.8971 36.9136 24.7899 36.3747C24.6827 35.836 24.4182 35.3409 24.0297 34.9525C23.6412 34.5641 23.1463 34.2994 22.6075 34.1922C22.0686 34.0851 21.51 34.1401 21.0025 34.3504C20.4949 34.5606 20.0611 34.9166 19.7559 35.3734C19.4507 35.8302 19.2877 36.3673 19.2877 36.9167C19.2877 37.6534 19.5803 38.36 20.1013 38.8809C20.6222 39.4018 21.3288 39.6945 22.0655 39.6945ZM22.0655 35.5278C22.3402 35.5278 22.6087 35.6092 22.8371 35.7618C23.0655 35.9145 23.2435 36.1313 23.3487 36.3852C23.4538 36.639 23.4813 36.9182 23.4277 37.1876C23.3741 37.457 23.2419 37.7045 23.0476 37.8988C22.8533 38.093 22.6059 38.2253 22.3364 38.2789C22.067 38.3325 21.7878 38.3049 21.534 38.1999C21.2802 38.0947 21.0633 37.9167 20.9107 37.6883C20.758 37.4599 20.6766 37.1913 20.6766 36.9167C20.6766 36.5483 20.8229 36.1951 21.0834 35.9345C21.3439 35.6741 21.6971 35.5278 22.0655 35.5278Z" fill="white"/>
<path d="M17.4078 33.2409L18.3897 32.2589L16.1029 29.9722L18.3897 27.6853L17.4078 26.7034L14.63 29.4811C14.4998 29.6114 14.4266 29.788 14.4266 29.9722C14.4266 30.1563 14.4998 30.3329 14.63 30.4631L17.4078 33.2409Z" fill="white"/>
<path d="M26.7232 33.2409L29.501 30.4631C29.6312 30.3329 29.7044 30.1563 29.7044 29.9722C29.7044 29.788 29.6312 29.6114 29.501 29.4811L26.7232 26.7034L25.7413 27.6853L28.0281 29.9722L25.7413 32.2589L26.7232 33.2409Z" fill="white"/>
<path d="M23.5939 26.7778L19.4261 32.3326L20.5371 33.1661L24.7048 27.6113L23.5939 26.7778Z" fill="white"/>
</svg>
