<svg width="51" height="50" viewBox="0 0 51 50" fill="none" xmlns="http://www.w3.org/2000/svg">
<g clip-path="url(#clip0_152_121)">
<mask id="mask0_152_121" style="mask-type:luminance" maskUnits="userSpaceOnUse" x="0" y="0" width="51" height="50">
<path d="M50.8711 0H0.871094V50H50.8711V0Z" fill="white"/>
</mask>
<g mask="url(#mask0_152_121)">
<path d="M50.1593 13.1296C50.1592 13.1296 50.1594 13.1296 50.1593 13.1296L50.1574 13.128L46.9301 12.6675C46.4764 12.6029 46.1611 12.1828 46.2257 11.7292C46.2567 11.5112 46.3731 11.3145 46.5492 11.1824L49.1577 9.22612C49.5243 8.95119 49.5985 8.43121 49.3236 8.06461L46.3369 4.08228C46.0619 3.71568 45.5419 3.64142 45.1753 3.91635L42.5677 5.87267C42.2027 6.14967 41.6823 6.07832 41.4053 5.71327C41.2708 5.53604 41.2131 5.31213 41.2453 5.09196L41.7066 1.86462C41.7716 1.41101 41.4566 0.990685 41.0031 0.925558C41.0028 0.925558 41.0034 0.925558 41.0031 0.925558L36.0774 0.221909C35.6239 0.156782 35.2033 0.471634 35.1382 0.925247C35.1382 0.925143 35.1382 0.92535 35.1382 0.925247L34.6769 4.1528C34.6123 4.60641 34.1922 4.92178 33.7386 4.85717C33.5206 4.82616 33.324 4.7097 33.1919 4.53361L31.2364 1.92518C30.9614 1.55858 30.4415 1.48433 30.0748 1.75925L27.5817 3.63012C26.4538 3.51023 25.3164 3.51023 24.1885 3.63012C16.8019 4.47439 11.0093 10.3651 10.2893 17.7649C10.2669 17.9997 10.2586 18.2328 10.247 18.4659H9.99809C9.60442 18.4667 9.2654 18.744 9.18669 19.1297L8.6134 21.8559L6.31693 20.2721C5.98735 20.0447 5.54224 20.0852 5.25912 20.3683L2.77017 22.8573C2.48746 23.1403 2.44702 23.5848 2.67393 23.9143L4.25026 26.2066L1.5232 26.7799C1.14177 26.8635 0.870266 27.2017 0.871096 27.5921V30.9107C0.870888 31.3031 1.14581 31.6421 1.52984 31.7229L4.2569 32.2962L2.68056 34.5886C2.45365 34.918 2.4941 35.3625 2.7768 35.6455L5.26576 38.1345C5.54888 38.4176 5.99398 38.4582 6.32356 38.2307L8.61589 36.6502L9.18918 39.3773C9.26789 39.763 9.60691 40.0403 10.0006 40.041H13.3192C13.7116 40.0412 14.0505 39.7663 14.1314 39.3823L14.7047 36.6552L16.997 38.2316C17.3265 38.4585 17.771 38.418 18.054 38.1353L19.3425 36.8427V39.2072C19.3462 40.3875 19.9785 41.4763 21.0018 42.0646V46.6741C21.0018 48.5069 22.4876 49.9927 24.3204 49.9927H27.639C29.4718 49.9927 30.9576 48.5069 30.9576 46.6741V42.0646C31.9809 41.4763 32.6132 40.3875 32.6169 39.2072V35.9235C32.6394 34.5418 33.3622 33.2662 34.5359 32.5368C35.2244 32.0902 35.8773 31.5908 36.4889 31.0435L35.3821 29.8073C34.8351 30.2976 34.2506 30.7445 33.6341 31.1438C31.9867 32.1778 30.9782 33.9786 30.9576 35.9235V39.2072C30.9576 40.1237 30.2147 40.8665 29.2983 40.8665H22.6611C21.7446 40.8665 21.0018 40.1237 21.0018 39.2072V35.8546C20.9826 33.9465 19.99 32.1805 18.3701 31.1721C11.7944 27.0402 9.81318 18.36 13.9451 11.7843C16.5087 7.70443 20.9828 5.22118 25.8013 5.20397C25.789 5.23352 25.7781 5.2637 25.769 5.2944C25.7382 5.51218 25.7952 5.73339 25.9274 5.90917L27.8829 8.51677C28.0891 8.7836 28.1089 9.1501 27.9327 9.43768C27.763 9.72702 27.435 9.88486 27.103 9.83674L23.8757 9.37546C23.4221 9.31043 23.0018 9.62539 22.9366 10.0789C22.9366 10.0786 22.9366 10.0792 22.9366 10.0789L22.2321 15.0071C22.1671 15.4606 22.4821 15.881 22.9356 15.9462C22.9353 15.9462 22.9359 15.9462 22.9356 15.9462L26.1639 16.4076C26.6175 16.4722 26.9329 16.8923 26.8682 17.3459C26.8372 17.5639 26.7208 17.7605 26.5447 17.8926L23.9371 19.8481C23.5705 20.1231 23.4962 20.643 23.7712 21.0096L26.7579 24.992C27.0328 25.3586 27.5528 25.4328 27.9194 25.1579L30.5278 23.2024C30.8947 22.928 31.4147 23.003 31.6891 23.37C31.8204 23.5456 31.877 23.7661 31.8462 23.9831L31.3857 27.2105C31.3206 27.664 31.6354 28.0845 32.089 28.1496C32.0889 28.1496 32.0891 28.1496 32.089 28.1496L37.0174 28.854C37.0562 28.859 37.0953 28.8615 37.1344 28.8615C37.5474 28.862 37.8978 28.5585 37.9565 28.1496L38.417 24.9223C38.4816 24.4687 38.9017 24.1533 39.3553 24.2179C39.5733 24.2489 39.7699 24.3654 39.9021 24.5415L41.8584 27.1491C42.1333 27.5157 42.6533 27.5899 43.0199 27.315L47.0022 24.3283C47.3688 24.0533 47.4431 23.5333 47.1682 23.1667L45.2127 20.5591C45.0074 20.2919 44.9876 19.926 45.1629 19.6382C45.3289 19.3451 45.66 19.1862 45.9925 19.24L49.2199 19.7005C49.6734 19.7656 50.0939 19.4506 50.1591 18.9971C50.1591 18.997 50.1591 18.9972 50.1591 18.9971L50.8626 14.0688C50.9277 13.6152 50.6129 13.1947 50.1593 13.1296ZM22.6611 42.5258H29.2983V44.1851H22.6611V42.5258ZM22.6611 45.8444H29.2983V46.6741C29.2983 47.5906 28.5554 48.3334 27.639 48.3334H24.3204C23.4039 48.3334 22.6611 47.5906 22.6611 46.6741V45.8444ZM16.0562 31.5371C16.5092 31.9075 16.9825 32.2525 17.4741 32.57C18.258 33.0654 18.8481 33.8149 19.1458 34.6931L17.3662 36.4694L15.6431 35.2813C14.8885 34.7613 13.8553 34.9515 13.3352 35.7061C13.2105 35.8871 13.123 36.091 13.0778 36.3059L12.643 38.3776H10.6709L10.2362 36.3093C10.0475 35.4125 9.16751 34.8385 8.27076 35.0272C8.05577 35.0725 7.85189 35.16 7.67092 35.2846L5.9469 36.4694L4.43528 34.9611L5.62251 33.2387C6.14301 32.4845 5.95344 31.4511 5.19918 30.9306C5.01811 30.8057 4.81401 30.7179 4.59872 30.6726L2.5304 30.237V28.2658L4.59872 27.8302C5.49516 27.6401 6.06782 26.7593 5.87773 25.8628C5.83262 25.6501 5.74623 25.4484 5.62334 25.2691L4.43528 23.5417L5.9469 22.0334L7.67175 23.2215C8.42663 23.741 9.45986 23.5501 9.97932 22.7953C10.1038 22.6145 10.1911 22.4108 10.2362 22.196L10.3814 21.5058C10.5143 22.4617 10.7345 23.4034 11.0393 24.3191C8.30944 24.6446 6.36028 27.1215 6.68571 29.8514C7.01114 32.5812 9.48806 34.5304 12.2179 34.205C13.8613 34.0089 15.2998 33.0091 16.0562 31.5371ZM14.7678 30.3681C14.1482 32.0902 12.2501 32.9839 10.528 32.3645C8.80599 31.7449 7.91224 29.8468 8.53168 28.1247C9.00562 26.8074 10.2564 25.9299 11.6565 25.9328C11.6673 25.9328 11.6772 25.9328 11.688 25.9328C12.451 27.5779 13.4929 29.0784 14.7678 30.3681ZM48.6292 17.9383L46.2232 17.5948C44.8624 17.4005 43.6017 18.3462 43.4074 19.7069C43.314 20.3603 43.4841 21.0242 43.8803 21.5522L45.338 23.4961L42.6831 25.4873L41.2245 23.5442C40.3999 22.4444 38.8398 22.2214 37.7401 23.046C37.212 23.442 36.8629 24.0315 36.7693 24.685L36.4333 27.0943L33.1487 26.6247L33.4922 24.2187C33.687 22.858 32.7419 21.5969 31.3811 21.4022C30.7273 21.3085 30.0631 21.4786 29.5347 21.875L27.5909 23.3327L25.5997 20.6778L27.5427 19.2193C28.6426 18.3946 28.8656 16.8345 28.041 15.7348C27.645 15.2067 27.0554 14.8576 26.402 14.764L23.996 14.4206L24.4656 11.136L26.8716 11.4794C28.2323 11.6743 29.4934 10.7291 29.6881 9.36841C29.7818 8.71454 29.6117 8.0504 29.2153 7.52201L27.7527 5.57648L30.4075 3.58532L31.8661 5.52919C32.6907 6.629 34.2508 6.85207 35.3505 6.0274C35.8786 5.63145 36.2278 5.04187 36.3213 4.38842L36.6648 1.98243L39.9494 2.45118L39.6059 4.85717C39.4115 6.21801 40.3571 7.47867 41.718 7.67301C42.3714 7.76635 43.0353 7.59627 43.5633 7.20011L45.5072 5.74241L47.4984 8.3973L45.5545 9.85583C44.4547 10.6805 44.2316 12.2405 45.0563 13.3402C45.4522 13.8683 46.0418 14.2175 46.6953 14.311L49.1013 14.6545L48.6292 17.9383Z" fill="#F4F8FB"/>
<path d="M36.5459 7.89941C32.8803 7.89941 29.9087 10.871 29.9087 14.5366C29.9087 18.2022 32.8803 21.1738 36.5459 21.1738C40.2115 21.1738 43.1831 18.2022 43.1831 14.5366C43.179 10.8727 40.2099 7.90346 36.5459 7.89941ZM36.5459 19.5145C33.7967 19.5145 31.568 17.2859 31.568 14.5366C31.568 11.7874 33.7967 9.55872 36.5459 9.55872C39.2952 9.55872 41.5238 11.7874 41.5238 14.5366C41.5206 17.2845 39.2938 19.5113 36.5459 19.5145Z" fill="#F4F8FB"/>
<path d="M26.8092 36.7185H25.1499V39.2074H26.8092V36.7185Z" fill="#F4F8FB"/>
<path d="M22.3507 28.5702C17.2291 26.5695 14.6992 20.7958 16.7 15.6742C17.4753 13.6897 18.8668 12.0062 20.6698 10.8713L19.7829 9.46753C14.3553 12.8868 12.7272 20.0586 16.1465 25.4862C17.4708 27.5882 19.4341 29.2103 21.7483 30.1142C23.7968 30.8991 25.1494 32.8653 25.1499 35.0589H26.8092C26.8118 32.1809 25.0382 29.5997 22.3507 28.5702Z" fill="#F4F8FB"/>
<path d="M47.5507 30.9106H41.7432V32.5699H47.5507V30.9106Z" fill="#F4F8FB"/>
<path d="M41.4444 35.2507L40.3823 36.5255L45.3606 40.6731L46.4227 39.3983L41.4444 35.2507Z" fill="#F4F8FB"/>
<path d="M38.4244 37.5481H36.7651V43.3556H38.4244V37.5481Z" fill="#F4F8FB"/>
<path d="M8.35501 12.6829L1.71826 14.3419L2.12044 15.9508L8.75719 14.2917L8.35501 12.6829Z" fill="#F4F8FB"/>
<path d="M4.06058 4.51758L3.09668 5.86708L8.90378 10.0149L9.86768 8.66541L4.06058 4.51758Z" fill="#F4F8FB"/>
<path d="M11.8126 0.00708008L10.2051 0.41809L11.9019 7.05479L13.5095 6.64378L11.8126 0.00708008Z" fill="#F4F8FB"/>
</g>
</g>
<defs>
<clipPath id="clip0_152_121">
<rect width="50" height="50" fill="white" transform="translate(0.871094)"/>
</clipPath>
</defs>
</svg>
