<svg width="48" height="51" viewBox="0 0 48 51" fill="none" xmlns="http://www.w3.org/2000/svg">
<path d="M11.4699 4.86304C9.76233 4.86304 8.37317 6.26207 8.37317 7.98171C8.37317 9.70135 9.76233 11.1004 11.4699 11.1004C13.1774 11.1004 14.5666 9.70135 14.5666 7.98171C14.5666 6.26207 13.1774 4.86304 11.4699 4.86304ZM11.4699 9.62523C10.57 9.62523 9.838 8.888 9.838 7.98171C9.838 7.07552 10.57 6.33829 11.4699 6.33829C12.3698 6.33829 13.1018 7.07552 13.1018 7.98171C13.1017 8.888 12.3697 9.62523 11.4699 9.62523Z" fill="white"/>
<path d="M14.5665 21.9491V19.0973C14.5665 18.6898 14.2387 18.3596 13.8341 18.3596H6.37372C5.96913 18.3596 5.6413 18.6898 5.6413 19.0973V21.9491C5.6413 22.3567 5.96913 22.6869 6.37372 22.6869H13.8342C14.2387 22.6869 14.5665 22.3567 14.5665 21.9491ZM13.1017 21.2114H7.10614V19.8351H13.1017V21.2114Z" fill="white"/>
<path d="M45.4412 6.12183H40.7921C39.9824 6.12183 39.2763 6.57552 38.9105 7.24348H19.3961V6.77592C19.3961 6.42714 19.1535 6.12615 18.8146 6.05427L17.0298 5.6759C17.0266 5.66803 17.0233 5.66017 17.02 5.6523L18.0164 4.11403C18.2057 3.82189 18.1657 3.43624 17.9208 3.18972L16.2283 1.48547C15.9834 1.23886 15.6005 1.19854 15.3103 1.3892L13.7824 2.39256C13.7746 2.38932 13.7669 2.38607 13.7591 2.38273L13.3833 0.585555C13.312 0.244251 13.013 0 12.6666 0H10.273C9.92659 0 9.62764 0.244251 9.55626 0.585555L9.18046 2.38273C9.17266 2.38597 9.16494 2.38922 9.15714 2.39256L7.6294 1.3892C7.33925 1.19864 6.95625 1.23905 6.71133 1.48547L5.01876 3.18963C4.77383 3.43634 4.73399 3.82199 4.92315 4.11403L5.91963 5.6524C5.91641 5.66027 5.91319 5.66803 5.90987 5.6759L4.12501 6.05427C3.78604 6.12606 3.54345 6.42714 3.54345 6.77592V7.24348H3.52402C1.58095 7.24348 0 8.83524 0 10.7918V33.7325C0 35.6889 1.58086 37.2808 3.52402 37.2808H6.29883C6.65294 39.8505 8.89433 41.8014 11.4695 41.8014C12.2289 41.8014 12.9501 41.636 13.6017 41.3414L11.9451 47.868C11.2873 50.4592 15.3874 51.3394 16.0193 48.8513L18.9563 37.281H21.3407V48.3596C21.3407 49.4394 22.2402 50.345 23.3125 50.345C24.385 50.345 25.2843 49.4394 25.2843 48.3596V37.2808H27.669L30.6058 48.851C31.2371 51.3387 35.338 50.4599 34.68 47.8678L31.9929 37.2808H43.1013C45.0443 37.2808 46.6253 35.689 46.6253 33.7325V17.7977C46.6253 17.3903 46.2975 17.0602 45.8929 17.0602C45.4883 17.0602 45.1605 17.3903 45.1605 17.7977V33.7325C45.1605 34.8757 44.2367 35.8059 43.1013 35.8059H16.6399C16.2825 33.2547 14.1007 31.2853 11.4696 31.2853C8.89433 31.2853 6.65303 33.2359 6.29893 35.8059H3.52402C2.38858 35.8059 1.46484 34.8757 1.46484 33.7325V12.3127H4.80782C4.82198 12.4816 4.89268 12.6454 5.01876 12.7723L6.71133 14.4765C6.95616 14.7229 7.33897 14.7633 7.6293 14.5728L9.15703 13.5694C9.16484 13.5726 9.17266 13.5759 9.18046 13.5792L9.55626 15.3764C9.62755 15.7177 9.92659 15.962 10.273 15.962H12.6666C13.013 15.962 13.3119 15.7177 13.3833 15.3764L13.7591 13.5792C13.7669 13.576 13.7747 13.5727 13.7825 13.5694L15.3103 14.5728C15.6006 14.7634 15.9836 14.723 16.2283 14.4765L17.9208 12.7723C18.0469 12.6454 18.1175 12.4816 18.1316 12.3127H38.3824L31.5546 19.1877L28.0476 15.6574C27.5017 15.1054 26.5947 15.1057 26.0481 15.6564L23.7713 17.9487C23.4852 18.2367 23.4852 18.7037 23.7712 18.9916C24.0572 19.2795 24.521 19.2797 24.8069 18.9917L27.0473 16.7361L30.5554 20.2675C31.1016 20.8171 32.0081 20.8188 32.5539 20.2674L42.5215 10.231C42.731 10.02 42.7936 9.70291 42.6802 9.42729C42.5669 9.15167 42.2997 8.97202 42.0035 8.97202H40.7919C39.911 8.97202 39.9119 7.59678 40.7919 7.59678H45.441C45.8069 7.59678 46.1047 7.89609 46.1047 8.26395V12.9451C46.1047 13.3206 45.7941 13.6333 45.4212 13.6333C45.0444 13.6333 44.7378 13.3246 44.7378 12.9451V11.7262C44.7378 11.428 44.5594 11.1589 44.2857 11.0449C44.0119 10.9305 43.697 10.9937 43.4875 11.2047L31.5551 23.2184L28.0466 19.6866C27.4964 19.1328 26.6004 19.1325 26.048 19.6867L20.0369 25.7402C19.4216 26.3608 18.4474 25.3957 19.0713 24.767L22.366 21.4498C22.6521 21.1617 22.6521 20.6948 22.366 20.4068C22.08 20.119 21.6162 20.1188 21.3303 20.4068L18.0356 23.724C17.1821 24.5835 17.2172 26.0173 18.0984 26.8412C18.9327 27.6213 20.2688 27.5943 21.0733 26.7827L27.0474 20.7666L30.5555 24.2979C31.0993 24.8474 32.0094 24.8493 32.5539 24.2989L43.3316 13.4478C43.5571 14.399 44.4085 15.1085 45.4213 15.1085C46.5914 15.1085 47.5696 14.1238 47.5696 12.9453V8.26395C47.5697 7.08271 46.6149 6.12183 45.4412 6.12183ZM14.6001 48.4858C14.4377 49.1256 13.1798 48.96 13.3645 48.2332L15.4769 39.9107C16.0866 39.1764 16.5008 38.2728 16.6398 37.2809H17.4443L14.6001 48.4858ZM23.8195 48.3595C23.8195 49.0163 22.8056 49.0174 22.8056 48.3595V37.2808H23.8195V48.3595ZM33.2608 48.2331C33.445 48.9583 32.1875 49.125 32.0252 48.4858L29.1811 37.2808H30.481L33.2608 48.2331ZM10.6216 32.8566C10.8985 32.7927 11.1839 32.7603 11.4696 32.7603C13.5413 32.7603 15.2267 34.4567 15.2274 36.542L15.2273 36.5433L15.2274 36.5446C15.2267 38.63 13.5412 40.3264 11.4696 40.3264C9.41397 40.3264 7.71251 38.6114 7.71251 36.5432C7.71251 34.77 8.90909 33.254 10.6216 32.8566ZM1.46484 10.7918C1.46484 9.64853 2.38858 8.71843 3.52402 8.71843H3.54345V9.18609C3.54345 9.53486 3.78604 9.83584 4.12501 9.90774L5.90987 10.2861C5.91309 10.2939 5.91631 10.3017 5.91963 10.3096L5.57745 10.8378H1.46484V10.7918ZM15.6127 13.0103L14.2444 12.1117C13.7476 11.7856 12.5293 12.3003 12.4087 12.8776L12.0723 14.4868H10.8673L10.5309 12.8776C10.4088 12.2932 9.18585 11.7894 8.69512 12.1117L7.32686 13.0103L6.47471 12.1524L7.36719 10.7747C7.69092 10.2745 7.17999 9.04773 6.60655 8.9263L5.00831 8.58755V7.37436L6.60655 7.03561C7.18712 6.9127 7.68702 5.68131 7.36719 5.1872L6.47471 3.8095L7.32686 2.95147L8.69512 3.85011C9.1919 4.17617 10.4103 3.66161 10.5309 3.08422L10.8674 1.47495H12.0724L12.4088 3.08422C12.5309 3.66869 13.7538 4.17224 14.2445 3.85011L15.6128 2.95147L16.4649 3.8095L15.5724 5.1872C15.2484 5.68731 15.7598 6.91427 16.3331 7.03561L17.9313 7.37436V8.58765L16.3331 8.9264C15.7527 9.04921 15.2524 10.2808 15.5724 10.7748L16.4649 12.1525L15.6127 13.0103ZM40.2934 10.3886L39.8474 10.8377H17.3621L17.02 10.3096C17.0232 10.3017 17.0265 10.2938 17.0298 10.286L18.8146 9.90764C19.1535 9.83584 19.3961 9.53476 19.3961 9.18599V8.71833H38.6882C38.8519 9.53181 39.491 10.1976 40.2934 10.3886Z" fill="white"/>
<path d="M41.4336 30.8774H27.5524C27.1478 30.8774 26.82 31.2077 26.82 31.6154C26.82 32.023 27.1478 32.3534 27.5524 32.3534H41.4336C41.8382 32.3534 42.166 32.023 42.166 31.6154C42.166 31.2077 41.8381 30.8774 41.4336 30.8774Z" fill="white"/>
<path d="M41.4336 27.6418H33.204C32.7995 27.6418 32.4716 27.9721 32.4716 28.3798C32.4716 28.7874 32.7995 29.1178 33.204 29.1178H41.4336C41.8382 29.1178 42.1661 28.7874 42.1661 28.3798C42.1661 27.9721 41.8381 27.6418 41.4336 27.6418Z" fill="white"/>
<path d="M6.37372 24.0112C5.96913 24.0112 5.6413 24.3415 5.6413 24.7492C5.6413 25.1568 5.96913 25.4871 6.37372 25.4871H11.4698C11.8744 25.4871 12.2022 25.1568 12.2022 24.7492C12.2022 24.3415 11.8744 24.0112 11.4698 24.0112H6.37372Z" fill="white"/>
<path d="M11.4699 38.2765C11.8745 38.2765 12.2023 37.9463 12.2023 37.5388V35.549C12.2023 35.1415 11.8745 34.8112 11.4699 34.8112C11.0653 34.8112 10.7375 35.1415 10.7375 35.549V37.5388C10.7375 37.9462 11.0653 38.2765 11.4699 38.2765Z" fill="white"/>
</svg>
