<svg width="47" height="47" viewBox="0 0 47 47" fill="none" xmlns="http://www.w3.org/2000/svg">
<path d="M1.56262 14.8438H0.00012207V11.7188C0.00128507 10.6831 0.413209 9.6902 1.14552 8.95793C1.87783 8.22562 2.87073 7.81369 3.90637 7.81253H30.4688V6.25003H28.9064C28.7518 6.25004 28.6008 6.20422 28.4723 6.11837C28.3438 6.03253 28.2437 5.91051 28.1845 5.76776C28.1254 5.625 28.1099 5.46791 28.1401 5.31636C28.1702 5.16481 28.2446 5.0256 28.3539 4.91634L33.0414 0.228837C33.114 0.156287 33.2001 0.098737 33.2949 0.059473C33.3897 0.020209 33.4912 0 33.5938 0C33.6965 0 33.798 0.020209 33.8928 0.059473C33.9876 0.098737 34.0737 0.156287 34.1463 0.228837L38.8338 4.91634C38.9431 5.0256 39.0175 5.16481 39.0476 5.31636C39.0778 5.46791 39.0623 5.625 39.0032 5.76776C38.944 5.91051 38.8439 6.03253 38.7154 6.11837C38.5869 6.20422 38.4359 6.25004 38.2814 6.25003H36.7188V7.81253H39.8438C40.8795 7.81369 41.8724 8.22562 42.6047 8.95793C43.337 9.6902 43.7489 10.6831 43.7501 11.7188V27.3438H42.1876V11.7188C42.1869 11.0974 41.9397 10.5017 41.5003 10.0623C41.0609 9.6229 40.4652 9.37575 39.8438 9.37503H36.7188V23.4375H35.1564V5.46878C35.1564 5.26158 35.2387 5.06287 35.3852 4.91635C35.5317 4.76984 35.7304 4.68753 35.9376 4.68753H36.3953L33.5938 1.88606L30.7924 4.68753H31.2501C31.4573 4.68753 31.656 4.76984 31.8025 4.91635C31.949 5.06287 32.0314 5.26158 32.0314 5.46878V24.2188H30.4688V9.37503H3.90637C3.28499 9.37575 2.68927 9.6229 2.24989 10.0623C1.81051 10.5017 1.56334 11.0974 1.56262 11.7188V14.8438ZM3.90637 39.0625H16.9188L15.0438 45.3125H13.2814V46.875H30.4688V45.3125H28.7064L27.7016 41.9629L26.2049 42.4121L27.0751 45.3125H16.6747L18.5497 39.0625H24.2188V37.5H3.90637C3.28499 37.4993 2.68927 37.2522 2.24989 36.8128C1.81051 36.3734 1.56334 35.7777 1.56262 35.1563V34.375H23.4376V32.8125H1.56262V16.4063H0.00012207V35.1563C0.00128507 36.1919 0.413209 37.1848 1.14552 37.9171C1.87783 38.6495 2.87073 39.0614 3.90637 39.0625ZM27.3438 25.7813V13.2813H24.2188V31.25H3.90637V29.6875H7.03137V23.4375C7.03137 23.2303 7.11368 23.0316 7.26019 22.8851C7.40671 22.7386 7.60542 22.6563 7.81262 22.6563H12.5001C12.7073 22.6563 12.906 22.7386 13.0525 22.8851C13.199 23.0316 13.2814 23.2303 13.2814 23.4375V29.6875H14.8438V17.9688C14.8438 17.7616 14.9262 17.5629 15.0727 17.4164C15.2192 17.2698 15.4179 17.1875 15.6251 17.1875H20.3126C20.5198 17.1875 20.7185 17.2698 20.865 17.4164C21.0115 17.5629 21.0938 17.7616 21.0938 17.9688V29.6875H22.6564V12.5C22.6564 12.2928 22.7387 12.0941 22.8852 11.9476C23.0317 11.8011 23.2304 11.7188 23.4376 11.7188H28.1251C28.3323 11.7188 28.531 11.8011 28.6775 11.9476C28.824 12.0941 28.9064 12.2928 28.9064 12.5V25.7813H27.3438ZM11.7188 24.2188H8.59387V29.6875H11.7188V24.2188ZM19.5314 18.75H16.4064V29.6875H19.5314V18.75ZM3.90637 10.9375V12.5H5.46887V10.9375H3.90637ZM8.59387 10.9375H7.03137V12.5H8.59387V10.9375ZM10.1564 10.9375V12.5H11.7188V10.9375H10.1564ZM46.1883 42.8744C46.6264 43.3148 46.8731 43.9101 46.8751 44.5313C46.8754 44.8392 46.815 45.1441 46.6973 45.4285C46.5796 45.713 46.407 45.9715 46.1893 46.1892C45.9716 46.4069 45.7131 46.5795 45.4286 46.6972C45.1441 46.8149 44.8392 46.8753 44.5314 46.875C43.9109 46.8696 43.3168 46.6234 42.8744 46.1882L39.1349 42.4488C37.1678 43.6091 34.8451 44.0122 32.6022 43.5824C30.3592 43.1526 28.35 41.9194 26.9513 40.1141C25.5525 38.3088 24.8603 36.0553 25.0043 33.7761C25.1484 31.4969 26.1188 29.3484 27.7336 27.7336C29.3485 26.1187 31.4969 25.1483 33.7762 25.0043C36.0554 24.8602 38.3089 25.5525 40.1142 26.9512C41.9195 28.3499 43.1526 30.3591 43.5824 32.6021C44.0122 34.8451 43.6092 37.1678 42.4488 39.1348L46.1883 42.8744ZM42.1876 34.375C42.1876 32.8299 41.7294 31.3194 40.871 30.0346C40.0125 28.7499 38.7924 27.7485 37.3648 27.1572C35.9373 26.5659 34.3664 26.4112 32.851 26.7127C31.3355 27.0141 29.9434 27.7582 28.8508 28.8508C27.7582 29.9434 27.0142 31.3354 26.7127 32.8509C26.4113 34.3664 26.566 35.9372 27.1573 37.3648C27.7486 38.7923 28.7499 40.0124 30.0347 40.8709C31.3195 41.7293 32.8299 42.1875 34.3751 42.1875C36.4464 42.1852 38.4322 41.3613 39.8968 39.8967C41.3614 38.4321 42.1852 36.4463 42.1876 34.375ZM45.0833 43.9793L41.5299 40.4257C41.1929 40.8236 40.8236 41.1928 40.4258 41.5298L43.9794 45.0832C44.0511 45.1588 44.1373 45.2193 44.2328 45.261C44.3283 45.3028 44.4311 45.325 44.5353 45.3263C44.6396 45.3277 44.743 45.3081 44.8395 45.2689C44.936 45.2296 45.0237 45.1714 45.0974 45.0978C45.1711 45.0241 45.2293 44.9364 45.2686 44.8398C45.3078 44.7433 45.3273 44.6399 45.326 44.5357C45.3246 44.4315 45.3024 44.3286 45.2607 44.2331C45.2189 44.1376 45.1589 44.0511 45.0833 43.9793ZM40.6251 34.375C40.6251 35.6112 40.2585 36.8195 39.5718 37.8474C38.885 38.8752 37.9089 39.6762 36.7669 40.1493C35.6248 40.6223 34.3682 40.7461 33.1558 40.5049C31.9434 40.2638 30.8298 39.6685 29.9557 38.7945C29.0816 37.9204 28.4863 36.8067 28.2452 35.5944C28.004 34.382 28.1278 33.1253 28.6009 31.9833C29.0739 30.8412 29.875 29.8651 30.9028 29.1784C31.9306 28.4916 33.139 28.125 34.3751 28.125C36.0321 28.1269 37.6208 28.786 38.7925 29.9577C39.9642 31.1294 40.6232 32.718 40.6251 34.375ZM39.0626 34.375C39.0626 33.4479 38.7877 32.5417 38.2726 31.7708C37.7575 30.9999 37.0255 30.3991 36.1689 30.0444C35.3124 29.6896 34.3699 29.5967 33.4606 29.7776C32.5513 29.9585 31.7161 30.4049 31.0605 31.0605C30.405 31.716 29.9585 32.5513 29.7777 33.4605C29.5968 34.3698 29.6896 35.3123 30.0444 36.1689C30.3992 37.0254 31 37.7575 31.7709 38.2726C32.5417 38.7876 33.448 39.0625 34.3751 39.0625C35.6179 39.0612 36.8094 38.5669 37.6881 37.6881C38.5669 36.8093 39.0612 35.6178 39.0626 34.375ZM31.2501 34.375H32.8126C32.8131 33.9608 32.9779 33.5636 33.2708 33.2707C33.5637 32.9778 33.9609 32.813 34.3751 32.8125V31.25C33.5466 31.251 32.7523 31.5805 32.1664 32.1664C31.5806 32.7522 31.251 33.5465 31.2501 34.375ZM41.4064 4.68753H42.9688C42.9675 3.44475 42.4732 2.25326 41.5944 1.37448C40.7156 0.4957 39.5241 0.00139801 38.2814 2.80142e-05V1.56253C39.1099 1.56346 39.9042 1.893 40.49 2.47885C41.0759 3.0647 41.4054 3.85901 41.4064 4.68753Z" fill="white"/>
</svg>
