<svg width="50" height="50" viewBox="0 0 50 50" fill="none" xmlns="http://www.w3.org/2000/svg">
<g clip-path="url(#clip0_105_98)">
<mask id="mask0_105_98" style="mask-type:luminance" maskUnits="userSpaceOnUse" x="0" y="0" width="51" height="50">
<path d="M50.0001 0H0.00012207V50H50.0001V0Z" fill="white"/>
</mask>
<g mask="url(#mask0_105_98)">
<path d="M49.2883 13.1295C49.2882 13.1295 49.2884 13.1295 49.2883 13.1295L49.2864 13.1279L46.0591 12.6674C45.6054 12.6028 45.2901 12.1827 45.3547 11.7291C45.3857 11.5111 45.5021 11.3144 45.6782 11.1823L48.2867 9.226C48.6533 8.95107 48.7275 8.43109 48.4526 8.06449L45.4659 4.08216C45.1909 3.71556 44.6709 3.6413 44.3043 3.91623L41.6967 5.87255C41.3317 6.14955 40.8113 6.0782 40.5343 5.71315C40.3998 5.53592 40.3421 5.31201 40.3743 5.09184L40.8356 1.8645C40.9006 1.41089 40.5856 0.990563 40.1321 0.925436C40.1318 0.925436 40.1324 0.925436 40.1321 0.925436L35.2064 0.221787C34.7529 0.15666 34.3323 0.471512 34.2672 0.925125C34.2672 0.925021 34.2672 0.925228 34.2672 0.925125L33.8059 4.15268C33.7413 4.60629 33.3212 4.92166 32.8676 4.85705C32.6496 4.82604 32.453 4.70958 32.3209 4.53349L30.3654 1.92506C30.0904 1.55846 29.5705 1.48421 29.2038 1.75913L26.7107 3.63C25.5828 3.51011 24.4454 3.51011 23.3175 3.63C15.9309 4.47427 10.1383 10.365 9.41833 17.7648C9.39593 17.9996 9.38763 18.2327 9.37602 18.4658H9.12712C8.73345 18.4666 8.39443 18.7439 8.31572 19.1296L7.74243 21.8558L5.44596 20.272C5.11638 20.0446 4.67127 20.0851 4.38815 20.3682L1.8992 22.8572C1.61649 23.1402 1.57605 23.5847 1.80296 23.9142L3.37929 26.2065L0.65223 26.7798C0.270798 26.8634 -0.000705686 27.2016 0.000123967 27.592V30.9106C-8.34467e-05 31.303 0.274842 31.642 0.658867 31.7228L3.38593 32.2961L1.80959 34.5885C1.58268 34.9179 1.62313 35.3624 1.90583 35.6454L4.39479 38.1344C4.67791 38.4175 5.12301 38.4581 5.45259 38.2306L7.74492 36.6501L8.31821 39.3772C8.39692 39.7629 8.73594 40.0402 9.12961 40.0409H12.4482C12.8406 40.0411 13.1795 39.7662 13.2604 39.3822L13.8337 36.6551L16.126 38.2315C16.4555 38.4584 16.9 38.4179 17.183 38.1352L18.4715 36.8426V39.2071C18.4752 40.3874 19.1075 41.4762 20.1308 42.0645V46.674C20.1308 48.5068 21.6166 49.9926 23.4494 49.9926H26.768C28.6008 49.9926 30.0866 48.5068 30.0866 46.674V42.0645C31.1099 41.4762 31.7422 40.3874 31.7459 39.2071V35.9234C31.7684 34.5417 32.4912 33.2661 33.6649 32.5367C34.3534 32.0901 35.0063 31.5907 35.6179 31.0434L34.5111 29.8072C33.9641 30.2975 33.3796 30.7444 32.7631 31.1437C31.1157 32.1777 30.1072 33.9785 30.0866 35.9234V39.2071C30.0866 40.1236 29.3437 40.8664 28.4273 40.8664H21.7901C20.8736 40.8664 20.1308 40.1236 20.1308 39.2071V35.8545C20.1116 33.9464 19.119 32.1804 17.4991 31.172C10.9234 27.0401 8.94221 18.3599 13.0741 11.7842C15.6377 7.70431 20.1118 5.22106 24.9303 5.20385C24.918 5.2334 24.9071 5.26358 24.898 5.29428C24.8672 5.51206 24.9242 5.73327 25.0564 5.90905L27.0119 8.51665C27.2181 8.78348 27.2379 9.14998 27.0617 9.43756C26.892 9.7269 26.564 9.88474 26.232 9.83662L23.0047 9.37534C22.5511 9.31031 22.1308 9.62527 22.0656 10.0788C22.0656 10.0785 22.0656 10.0791 22.0656 10.0788L21.3611 15.007C21.2961 15.4605 21.6111 15.8809 22.0646 15.9461C22.0643 15.9461 22.0649 15.9461 22.0646 15.9461L25.2929 16.4075C25.7465 16.4721 26.0619 16.8922 25.9972 17.3458C25.9662 17.5638 25.8498 17.7604 25.6737 17.8925L23.0661 19.848C22.6995 20.123 22.6252 20.6429 22.9002 21.0095L25.8869 24.9919C26.1618 25.3585 26.6818 25.4327 27.0484 25.1578L29.6568 23.2023C30.0237 22.9279 30.5437 23.0029 30.8181 23.3699C30.9494 23.5455 31.006 23.766 30.9752 23.983L30.5147 27.2104C30.4496 27.6639 30.7644 28.0844 31.218 28.1495C31.2179 28.1495 31.2181 28.1495 31.218 28.1495L36.1464 28.8539C36.1852 28.8589 36.2243 28.8614 36.2634 28.8614C36.6764 28.8619 37.0268 28.5584 37.0855 28.1495L37.546 24.9222C37.6106 24.4686 38.0307 24.1532 38.4843 24.2178C38.7023 24.2488 38.8989 24.3653 39.0311 24.5414L40.9874 27.149C41.2623 27.5156 41.7823 27.5898 42.1489 27.3149L46.1312 24.3282C46.4978 24.0532 46.5721 23.5332 46.2972 23.1666L44.3417 20.559C44.1364 20.2918 44.1166 19.9259 44.2919 19.6381C44.4579 19.345 44.789 19.1861 45.1215 19.2399L48.3489 19.7004C48.8024 19.7655 49.2229 19.4505 49.2881 18.997C49.2881 18.9969 49.2881 18.9971 49.2881 18.997L49.9916 14.0687C50.0567 13.6151 49.7419 13.1946 49.2883 13.1295ZM21.7901 42.5257H28.4273V44.185H21.7901V42.5257ZM21.7901 45.8443H28.4273V46.674C28.4273 47.5905 27.6844 48.3333 26.768 48.3333H23.4494C22.5329 48.3333 21.7901 47.5905 21.7901 46.674V45.8443ZM15.1852 31.537C15.6382 31.9074 16.1115 32.2524 16.6031 32.5699C17.387 33.0653 17.9771 33.8148 18.2748 34.693L16.4952 36.4693L14.7721 35.2812C14.0175 34.7612 12.9843 34.9514 12.4642 35.706C12.3395 35.887 12.252 36.0909 12.2068 36.3058L11.772 38.3775H9.79997L9.36523 36.3092C9.17649 35.4124 8.29654 34.8384 7.39979 35.0271C7.1848 35.0724 6.98092 35.1599 6.79995 35.2845L5.07593 36.4693L3.56431 34.961L4.75154 33.2386C5.27204 32.4844 5.08247 31.451 4.32821 30.9305C4.14714 30.8056 3.94304 30.7178 3.72775 30.6725L1.65943 30.2369V28.2657L3.72775 27.8301C4.62419 27.64 5.19685 26.7592 5.00676 25.8627C4.96165 25.65 4.87526 25.4483 4.75237 25.269L3.56431 23.5416L5.07593 22.0333L6.80078 23.2214C7.55566 23.7409 8.58889 23.55 9.10835 22.7952C9.2328 22.6144 9.32012 22.4107 9.36523 22.1959L9.51042 21.5057C9.64337 22.4616 9.86354 23.4033 10.1683 24.319C7.43847 24.6445 5.48931 27.1214 5.81474 29.8513C6.14017 32.5811 8.61709 34.5303 11.3469 34.2049C12.9903 34.0088 14.4288 33.009 15.1852 31.537ZM13.8968 30.368C13.2772 32.0901 11.3791 32.9838 9.65706 32.3644C7.93502 31.7448 7.04127 29.8467 7.66071 28.1246C8.13465 26.8073 9.38545 25.9298 10.7855 25.9327C10.7963 25.9327 10.8062 25.9327 10.817 25.9327C11.58 27.5778 12.6219 29.0783 13.8968 30.368ZM47.7582 17.9382L45.3522 17.5947C43.9914 17.4004 42.7307 18.3461 42.5364 19.7068C42.443 20.3602 42.6131 21.0241 43.0093 21.5521L44.467 23.496L41.8121 25.4872L40.3535 23.5441C39.5289 22.4443 37.9688 22.2213 36.8691 23.0459C36.341 23.4419 35.9919 24.0314 35.8983 24.6849L35.5623 27.0942L32.2777 26.6246L32.6212 24.2186C32.816 22.8579 31.8709 21.5968 30.5101 21.4021C29.8563 21.3084 29.1921 21.4785 28.6637 21.8749L26.7199 23.3326L24.7287 20.6777L26.6717 19.2192C27.7716 18.3945 27.9946 16.8344 27.17 15.7347C26.774 15.2066 26.1844 14.8575 25.531 14.7639L23.125 14.4205L23.5946 11.1359L26.0006 11.4793C27.3613 11.6742 28.6224 10.729 28.8171 9.36829C28.9108 8.71442 28.7407 8.05028 28.3443 7.52189L26.8817 5.57636L29.5365 3.5852L30.9951 5.52907C31.8197 6.62888 33.3798 6.85195 34.4795 6.02728C35.0076 5.63133 35.3568 5.04175 35.4503 4.3883L35.7938 1.98231L39.0784 2.45106L38.7349 4.85705C38.5405 6.21789 39.4861 7.47855 40.847 7.67289C41.5004 7.76623 42.1643 7.59615 42.6923 7.19999L44.6362 5.74229L46.6274 8.39718L44.6835 9.85571C43.5837 10.6804 43.3606 12.2404 44.1853 13.3401C44.5812 13.8682 45.1708 14.2174 45.8243 14.3109L48.2303 14.6544L47.7582 17.9382Z" fill="white"/>
<path d="M35.6749 7.89941C32.0093 7.89941 29.0377 10.871 29.0377 14.5366C29.0377 18.2022 32.0093 21.1738 35.6749 21.1738C39.3405 21.1738 42.3121 18.2022 42.3121 14.5366C42.308 10.8727 39.3389 7.90346 35.6749 7.89941ZM35.6749 19.5145C32.9257 19.5145 30.697 17.2859 30.697 14.5366C30.697 11.7874 32.9257 9.55872 35.6749 9.55872C38.4242 9.55872 40.6528 11.7874 40.6528 14.5366C40.6496 17.2845 38.4228 19.5113 35.6749 19.5145Z" fill="white"/>
<path d="M25.9382 36.7183H24.2789V39.2072H25.9382V36.7183Z" fill="white"/>
<path d="M21.4797 28.5701C16.3581 26.5694 13.8282 20.7957 15.829 15.6741C16.6043 13.6896 17.9958 12.0061 19.7988 10.8712L18.9119 9.46741C13.4843 12.8867 11.8562 20.0585 15.2755 25.4861C16.5998 27.5881 18.5631 29.2102 20.8773 30.1141C22.9258 30.899 24.2784 32.8652 24.2789 35.0588H25.9382C25.9408 32.1808 24.1672 29.5996 21.4797 28.5701Z" fill="white"/>
<path d="M46.6797 30.9106H40.8722V32.5699H46.6797V30.9106Z" fill="white"/>
<path d="M40.5735 35.2507L39.5114 36.5255L44.4897 40.6731L45.5518 39.3983L40.5735 35.2507Z" fill="white"/>
<path d="M37.5534 37.5479H35.8941V43.3554H37.5534V37.5479Z" fill="white"/>
<path d="M7.48404 12.6827L0.84729 14.3417L1.24947 15.9506L7.88622 14.2915L7.48404 12.6827Z" fill="white"/>
<path d="M3.18961 4.51743L2.22571 5.86693L8.03281 10.0148L8.99671 8.66526L3.18961 4.51743Z" fill="white"/>
<path d="M10.9416 0.00695801L9.33411 0.417968L11.0309 7.05467L12.6385 6.64366L10.9416 0.00695801Z" fill="white"/>
</g>
</g>
<defs>
<clipPath id="clip0_105_98">
<rect width="50" height="50" fill="white"/>
</clipPath>
</defs>
</svg>
