<svg width="49" height="49" viewBox="0 0 49 49" fill="none" xmlns="http://www.w3.org/2000/svg">
<path d="M42.1877 34.3797V31.25C42.1864 30.2143 41.7745 29.2215 41.0422 28.4893C40.3099 27.757 39.317 27.3449 38.2814 27.3438H31.7048C32.428 26.0098 33.0113 24.6046 33.4455 23.1507L36.4142 20.775C36.8757 20.4065 37.213 19.9056 37.3807 19.3393C37.5484 18.7731 37.5385 18.1693 37.3521 17.6089C37.1658 17.0486 36.812 16.559 36.3387 16.2061C35.8653 15.8531 35.295 15.6539 34.7048 15.6352L36.4455 10.8492C36.8896 9.62785 37.0328 8.31737 36.8629 7.02888C36.693 5.7404 36.215 4.51185 35.4695 3.44732C34.7239 2.3828 33.7327 1.51368 32.5799 0.91358C31.4271 0.31349 30.1467 0.000110823 28.847 8.23417e-07H22.2142C17.2512 -0.00123718 12.3878 1.39354 8.17981 4.025C8.05338 4.10332 7.95192 4.2161 7.88738 4.35008C7.82283 4.48407 7.79787 4.6337 7.81543 4.78138C7.83298 4.92907 7.89233 5.06867 7.98649 5.18379C8.08066 5.29891 8.20572 5.38476 8.347 5.43125L10.2306 6.05625C10.4899 6.14273 10.7287 6.28127 10.9325 6.46337C11.1363 6.64546 11.3007 6.86727 11.4157 7.11519C11.5307 7.36311 11.5939 7.63192 11.6013 7.90511C11.6087 8.1783 11.5602 8.45013 11.4587 8.70391C11.2716 9.17176 11.1856 9.67395 11.2064 10.1775C11.2273 10.6809 11.3546 11.1743 11.5798 11.625L13.5939 15.6493C13.0177 15.6951 12.4687 15.9131 12.018 16.275C11.5673 16.6369 11.2359 17.126 11.0667 17.6787C10.8976 18.2314 10.8985 18.8223 11.0694 19.3743C11.2404 19.9265 11.5733 20.4146 12.0252 20.775L14.9939 23.1507C15.4276 24.6046 16.0104 26.0098 16.733 27.3438H10.1564C9.12075 27.3449 8.1279 27.757 7.3956 28.4893C6.66331 29.2215 6.25136 30.2143 6.25012 31.25V34.3797C4.40109 35.1521 2.82145 36.4536 1.70951 38.1207C0.597572 39.7878 0.00289307 41.7462 0.00012207 43.75V47.6562C0.00012207 47.8634 0.082432 48.0621 0.228942 48.2086C0.375462 48.3551 0.574172 48.4375 0.781372 48.4375H47.6564C47.8636 48.4375 48.0623 48.3551 48.2088 48.2086C48.3553 48.0621 48.4377 47.8634 48.4377 47.6562V43.75C48.4349 41.7462 47.8402 39.7878 46.7283 38.1207C45.6163 36.4536 44.0367 35.1521 42.1877 34.3797ZM30.4689 15.625H25.7814C25.5742 15.625 25.3755 15.7073 25.229 15.8538C25.0825 16.0003 25.0001 16.1991 25.0001 16.4062V17.1875H23.4377V16.4062C23.4377 16.1991 23.3553 16.0003 23.2088 15.8538C23.0623 15.7073 22.8636 15.625 22.6564 15.625H15.6251V14.4804L20.5017 11.2296C21.5511 10.5286 22.785 10.1551 24.047 10.1562C25.8525 10.1542 27.6039 9.53965 29.015 8.41328L30.2916 7.39219L31.6314 9.40315C32.4028 10.5573 32.814 11.9149 32.8127 13.3032V15.625H30.4689ZM29.6877 17.1875V19.5312C29.6877 19.7384 29.6053 19.9372 29.4588 20.0837C29.3123 20.2302 29.1136 20.3125 28.9064 20.3125H27.3439C27.1367 20.3125 26.938 20.2302 26.7915 20.0837C26.645 19.9372 26.5627 19.7384 26.5627 19.5312V17.1875H29.6877ZM21.8751 17.1875V19.5312C21.8751 19.7384 21.7928 19.9372 21.6463 20.0837C21.4998 20.2302 21.3011 20.3125 21.0939 20.3125H19.5314C19.3242 20.3125 19.1255 20.2302 18.979 20.0837C18.8325 19.9372 18.7501 19.7384 18.7501 19.5312V17.1875H21.8751ZM35.9377 18.5156C35.9381 18.715 35.8934 18.9118 35.8071 19.0914C35.7208 19.2711 35.5951 19.4289 35.4392 19.5532L34.0228 20.6859C34.2293 19.5308 34.3429 18.3609 34.3626 17.1875H34.6095C34.7839 17.1875 34.9566 17.2218 35.1178 17.2885C35.2789 17.3553 35.4253 17.4531 35.5487 17.5765C35.672 17.6999 35.7698 17.8463 35.8366 18.0074C35.9033 18.1686 35.9377 18.3412 35.9377 18.5156ZM12.9087 9.28435C13.0892 8.83299 13.1756 8.34948 13.1626 7.86352C13.1495 7.37755 13.0373 6.89938 12.8328 6.45833C12.6284 6.01728 12.336 5.62266 11.9735 5.29867C11.6111 4.97468 11.1863 4.72816 10.7251 4.57422L10.4861 4.49609C14.095 2.56936 18.1232 1.56178 22.2142 1.5625H28.847C29.8952 1.5627 30.9279 1.81548 31.8577 2.29944C32.7875 2.7834 33.587 3.48429 34.1884 4.34275C34.7899 5.20122 35.1756 6.19197 35.313 7.23113C35.4503 8.27029 35.3353 9.32725 34.9775 10.3125L34.2986 12.1797C34.1289 10.8752 33.6611 9.62735 32.9314 8.53281L31.1189 5.81328C31.0588 5.7232 30.9805 5.64662 30.8892 5.58838C30.7979 5.53015 30.6955 5.49154 30.5884 5.475C30.4814 5.45884 30.3723 5.46486 30.2677 5.49268C30.1632 5.5205 30.0654 5.56953 29.9806 5.63672L28.0392 7.19375C26.905 8.0982 25.4977 8.59169 24.047 8.59375C22.4764 8.59232 20.9406 9.05728 19.6345 9.92965L14.4103 13.4124C14.3619 13.4453 14.3173 13.4837 14.2775 13.5266L12.9775 10.9257C12.8508 10.6726 12.7792 10.3953 12.7673 10.1124C12.7555 9.82955 12.8037 9.54735 12.9087 9.28435ZM12.9994 19.5546C12.7837 19.383 12.6268 19.1486 12.5505 18.8836C12.4741 18.6189 12.482 18.3369 12.5731 18.0767C12.6642 17.8166 12.8339 17.5913 13.0588 17.4319C13.2837 17.2726 13.5527 17.1872 13.8283 17.1875H14.0736C14.0932 18.3614 14.2069 19.5317 14.4134 20.6875L12.9994 19.5546ZM15.6377 17.1875H17.1877V19.5312C17.1877 20.1528 17.4346 20.749 17.8741 21.1886C18.3137 21.6281 18.9098 21.875 19.5314 21.875H21.0939C21.7155 21.875 22.3116 21.6281 22.7512 21.1886C23.1907 20.749 23.4377 20.1528 23.4377 19.5312V18.75H25.0001V19.5312C25.0001 20.1528 25.2471 20.749 25.6866 21.1886C26.1262 21.6281 26.7223 21.875 27.3439 21.875H28.9064C29.528 21.875 30.1241 21.6281 30.5637 21.1886C31.0032 20.749 31.2501 20.1528 31.2501 19.5312V17.1875H32.8001C32.7395 20.7684 31.7398 24.2705 29.9009 27.3438H18.5369C16.698 24.2705 15.6983 20.7684 15.6377 17.1875ZM10.1564 28.9062H38.2814C38.903 28.9062 39.4991 29.1532 39.9387 29.5928C40.3782 30.0323 40.6251 30.6284 40.6251 31.25V46.875H7.81262V31.25C7.81262 30.6284 8.05955 30.0323 8.49909 29.5928C8.93863 29.1532 9.53477 28.9062 10.1564 28.9062ZM1.56262 43.75C1.56474 42.167 2.00343 40.6152 2.83044 39.2654C3.65745 37.9156 4.84073 36.82 6.25012 36.0993V46.875H1.56262V43.75ZM46.8751 46.875H42.1877V36.0993C43.597 36.82 44.7802 37.9156 45.6072 39.2654C46.4342 40.6152 46.8729 42.167 46.8751 43.75V46.875Z" fill="white"/>
<path d="M24.2189 44.5312C24.837 44.5312 25.4412 44.3479 25.9551 44.0045C26.469 43.6612 26.8695 43.1731 27.106 42.6021C27.3426 42.0311 27.4044 41.4027 27.2839 40.7965C27.1633 40.1904 26.8657 39.6335 26.4286 39.1965C25.9916 38.7595 25.4348 38.4618 24.8286 38.3412C24.2224 38.2207 23.594 38.2826 23.023 38.5191C22.452 38.7556 21.9639 39.1561 21.6206 39.67C21.2772 40.1839 21.0939 40.7881 21.0939 41.4062C21.0939 42.235 21.4231 43.0299 22.0092 43.6159C22.5952 44.202 23.3901 44.5312 24.2189 44.5312ZM24.2189 39.8437C24.5279 39.8437 24.83 39.9353 25.087 40.107C25.3439 40.2787 25.5442 40.5227 25.6625 40.8083C25.7807 41.0938 25.8117 41.4079 25.7514 41.711C25.6911 42.0141 25.5423 42.2925 25.3238 42.5111C25.1052 42.7296 24.8268 42.8784 24.5237 42.9387C24.2206 42.999 23.9065 42.968 23.621 42.8498C23.3354 42.7315 23.0914 42.5312 22.9197 42.2743C22.748 42.0173 22.6564 41.7152 22.6564 41.4062C22.6564 40.9918 22.821 40.5944 23.114 40.3013C23.4071 40.0083 23.8045 39.8437 24.2189 39.8437Z" fill="white"/>
<path d="M18.9789 37.2711L20.0836 36.1664L17.5109 33.5938L20.0836 31.0211L18.9789 29.9164L15.8539 33.0414C15.7074 33.1879 15.6251 33.3866 15.6251 33.5938C15.6251 33.8009 15.7074 33.9996 15.8539 34.1461L18.9789 37.2711Z" fill="white"/>
<path d="M29.4588 37.2711L32.5838 34.1461C32.7303 33.9996 32.8126 33.8009 32.8126 33.5938C32.8126 33.3866 32.7303 33.1879 32.5838 33.0414L29.4588 29.9164L28.3542 31.0211L30.9268 33.5938L28.3542 36.1664L29.4588 37.2711Z" fill="white"/>
<path d="M25.9384 29.9999L21.2497 36.249L22.4995 37.1867L27.1882 30.9376L25.9384 29.9999Z" fill="white"/>
</svg>
