<svg width="40" height="40" viewBox="0 0 40 40" fill="none" xmlns="http://www.w3.org/2000/svg">
<path d="M15 5H3.75C1.68213 5 0 6.68213 0 8.75V20C0 22.0679 1.68213 23.75 3.75 23.75H8.79578L6.89819 33.5114C6.82678 33.8782 6.92321 34.2572 7.16064 34.5453C7.39806 34.8334 7.75146 35 8.125 35H12.1747C13.2617 35 14.2279 34.2889 14.5569 33.2593L18.1958 24.6277C18.2165 24.5783 18.2342 24.5276 18.2483 24.4763C18.5815 23.2788 18.75 22.0404 18.75 20.7959V8.75C18.75 6.68213 17.0679 5 15 5Z" fill="#0E5AF2"/>
<path d="M36.25 5H25C22.9321 5 21.25 6.68213 21.25 8.75V20C21.25 22.0679 22.9321 23.75 25 23.75H30.0464L28.1482 33.5114C28.0762 33.8782 28.1726 34.2572 28.4106 34.5453C28.6475 34.8334 29.0015 35 29.375 35H33.4253C34.5129 35 35.4785 34.2889 35.8069 33.2587L39.4458 24.6277C39.4665 24.5782 39.4836 24.5276 39.4983 24.4763C39.8315 23.2776 40 22.0392 40 20.7959V8.75C40 6.68213 38.3179 5 36.25 5Z" fill="#0E5AF2"/>
</svg>
