<svg width="174" height="45" viewBox="0 0 174 45" fill="none" xmlns="http://www.w3.org/2000/svg">
<g clip-path="url(#clip0_92_5)">
<path d="M43.9541 20C43.4967 16.0186 41.8699 12.2611 39.2784 9.2C39.4897 8.83464 39.6046 8.42176 39.6124 8C39.6133 7.68458 39.5517 7.3721 39.4312 7.08052C39.3106 6.78894 39.1335 6.52402 38.9101 6.30098C38.6866 6.07795 38.4212 5.9012 38.129 5.7809C37.8369 5.6606 37.5238 5.59912 37.2078 5.6C36.752 5.58931 36.3056 5.73001 35.9387 6C32.8443 3.62215 29.1394 2.16613 25.2514 1.8C25.1268 1.29088 24.836 0.83763 24.4248 0.511716C24.0136 0.185801 23.5054 0.00576597 22.9804 0C22.4376 0.00505556 21.9122 0.191751 21.4883 0.530192C21.0644 0.868633 20.7666 1.33924 20.6425 1.86667C16.8945 2.36427 13.3575 3.88711 10.4228 6.26667C10.06 6.02738 9.639 5.8905 9.20454 5.87052C8.77008 5.85055 8.33829 5.94823 7.95492 6.15321C7.57154 6.3582 7.25085 6.66285 7.02682 7.03491C6.80278 7.40697 6.68373 7.83259 6.68229 8.26667C6.6717 8.76295 6.81138 9.25088 7.08307 9.66667C4.7286 12.6573 3.2284 16.2278 2.74137 20C2.21437 20.1022 1.73947 20.3843 1.39819 20.7979C1.05691 21.2116 0.870547 21.7309 0.871095 22.2667C0.87616 22.8084 1.06322 23.3328 1.40231 23.7558C1.74141 24.1789 2.21292 24.4761 2.74137 24.6C3.1192 28.4373 4.5782 32.0893 6.94947 35.1333C6.70972 35.4955 6.57258 35.9157 6.55257 36.3493C6.53256 36.7829 6.63042 37.2139 6.8358 37.5965C7.04118 37.9791 7.34643 38.2992 7.7192 38.5228C8.09198 38.7464 8.51842 38.8652 8.95334 38.8667C9.40763 38.8675 9.851 38.7277 10.2224 38.4667C13.2091 40.9634 16.8468 42.5591 20.7093 43.0667C20.8097 43.6115 21.0989 44.1038 21.5263 44.4573C21.9537 44.8107 22.4921 45.0029 23.0472 45C23.59 44.9949 24.1153 44.8083 24.5392 44.4698C24.9631 44.1314 25.2609 43.6608 25.385 43.1333C29.2996 42.7458 33.0262 41.2673 36.139 38.8667C36.5105 39.1277 36.9539 39.2675 37.4082 39.2667C37.7242 39.2675 38.0373 39.2061 38.3294 39.0858C38.6216 38.9655 38.887 38.7887 39.1105 38.5657C39.3339 38.3426 39.511 38.0777 39.6315 37.7861C39.7521 37.4946 39.8137 37.1821 39.8128 36.8667C39.8142 36.4436 39.6986 36.0284 39.4788 35.6667C42.094 32.4978 43.6992 28.6204 44.0877 24.5333C44.6021 24.3938 45.0567 24.0903 45.3822 23.6691C45.7078 23.2479 45.8865 22.732 45.8912 22.2C45.8431 21.6759 45.6297 21.1805 45.2816 20.7852C44.9335 20.3898 44.4687 20.1149 43.9541 20ZM37.5418 10.3333C38.0168 10.3343 38.4816 10.1951 38.8777 9.93333C41.2004 12.8158 42.7004 16.2707 43.2194 19.9333C42.895 19.9965 42.5888 20.131 42.3231 20.327C42.0574 20.523 41.8387 20.7757 41.6831 21.0667L35.6047 18.8C35.6409 18.3878 35.5674 17.9734 35.3914 17.5987C35.2155 17.2241 34.9434 16.9025 34.6028 16.6667L37.2746 10.4C37.3414 10.3333 37.4082 10.3333 37.5418 10.3333ZM35.9387 10L33.2668 16.2667C33.1333 16.2667 32.9997 16.2 32.8661 16.2C32.3875 16.2076 31.9221 16.3576 31.5294 16.6307C31.1367 16.9039 30.8346 17.2878 30.6618 17.7333L19.7074 15.2C19.7181 15.0415 19.6954 14.8825 19.6406 14.7333L35.2039 9.26667C35.4318 9.52751 35.6773 9.77252 35.9387 10ZM23.0472 4.66667C23.5988 4.65697 24.1307 4.4603 24.5556 4.10896C24.9804 3.75763 25.2729 3.27252 25.385 2.73333C28.9789 3.06897 32.4052 4.40912 35.2707 6.6C34.9963 7.04449 34.8788 7.5678 34.9367 8.08667V8.13333L19.3066 13.6C19.173 13.4667 19.0394 13.2667 18.9058 13.2L22.9804 4.66667H23.0472ZM20.6425 2.93333C20.7097 3.26463 20.8533 3.57572 21.062 3.8419C21.2707 4.10808 21.5388 4.322 21.8448 4.46667L17.8371 12.8667C17.6877 12.812 17.5284 12.7893 17.3696 12.8C16.8918 12.7789 16.4209 12.9199 16.0336 13.2L11.2912 9.2C11.4218 8.88264 11.4898 8.5431 11.4916 8.2C11.475 7.77957 11.3606 7.36874 11.1576 7C13.9216 4.86191 17.186 3.4623 20.6425 2.93333ZM5.54677 21.8L15.3657 16.6667C15.5785 16.9616 15.8599 17.2007 16.1857 17.3632C16.5114 17.5258 16.8718 17.607 17.236 17.6L20.6425 28.4667C20.4154 28.6172 20.2313 28.8239 20.1082 29.0667L5.47998 22.9333C5.53866 22.7163 5.56123 22.491 5.54677 22.2667V21.8ZM7.95141 10.3333C8.29334 10.5436 8.6854 10.6586 9.08693 10.6667C9.62367 10.663 10.1427 10.4747 10.5564 10.1333L15.2989 14.0667C15.0791 14.4284 14.9636 14.8436 14.9649 15.2667C14.9542 15.4252 14.9769 15.5842 15.0317 15.7333L5.146 20.8667C4.82358 20.4669 4.37712 20.1854 3.87689 20.0667C4.30276 16.5074 5.71368 13.137 7.95141 10.3333ZM8.68615 34.1333C8.26491 34.1499 7.85329 34.264 7.48384 34.4667C5.28873 31.6067 3.94599 28.187 3.60971 24.6C4.07375 24.4783 4.49179 24.2233 4.81202 23.8667L19.5738 30.0667C19.5387 30.4152 19.5774 30.7673 19.6874 31.1L10.7568 35.4667C10.5832 35.0644 10.2936 34.7228 9.92485 34.4854C9.55611 34.2479 9.12491 34.1254 8.68615 34.1333ZM20.7093 42.0667C17.1347 41.5409 13.7669 40.0675 10.9572 37.8C11.177 37.4139 11.2921 36.9774 11.2912 36.5333L20.5757 32.0667C20.8398 32.2827 21.1319 32.4621 21.4441 32.6L21.9784 40.6C21.6597 40.7171 21.376 40.9131 21.154 41.1697C20.932 41.4262 20.779 41.7349 20.7093 42.0667ZM21.7113 28L18.3715 17.4C18.8436 17.1289 19.2353 16.7378 19.507 16.2667L30.595 18.8C30.6462 19.1812 30.7832 19.5459 30.9958 19.8667L23.3811 28.2667C23.0392 28.0564 22.6471 27.9414 22.2456 27.9333C22.0452 27.9333 21.8448 28 21.7113 28ZM25.3182 42.2C25.1941 41.6726 24.8963 41.202 24.4724 40.8635C24.0485 40.5251 23.5232 40.3384 22.9804 40.3333L22.446 32.7333C23.0072 32.6698 23.5278 32.41 23.9155 32L34.9367 36.9333V37C34.9446 37.4429 35.0592 37.8773 35.2707 38.2667C32.3765 40.4623 28.9339 41.8228 25.3182 42.2ZM35.2039 35.6L24.4499 30.8C24.5266 30.5625 24.5715 30.3159 24.5835 30.0667C24.594 29.5704 24.4544 29.0825 24.1827 28.6667L31.7306 20.3333C32.1656 20.5888 32.6712 20.6986 33.1733 20.6467L35.9787 34.6467C35.6689 34.919 35.407 35.2412 35.2039 35.6ZM38.5437 35.0667C38.0759 34.743 37.5059 34.6008 36.9406 34.6667L34.1352 20.6667C34.4455 20.4681 34.6987 20.1924 34.8699 19.8667L40.9483 22.1333C40.8972 22.7205 41.0674 23.3056 41.4256 23.7742C41.7839 24.2427 42.3044 24.561 42.8854 24.6667C42.4718 28.4783 40.9641 32.0896 38.5437 35.0667Z" fill="white"/>
<path d="M73.0101 13.3334H64.9947V35.3334H59.6511V13.3334H51.6356V8.66675H73.0101V13.3334Z" fill="white"/>
<path d="M78.7879 35.8667C77.5748 35.9381 76.3602 35.7527 75.2239 35.3228C74.0875 34.8928 73.055 34.228 72.1941 33.3719C71.3332 32.5158 70.6634 31.4878 70.2284 30.3552C69.7935 29.2226 69.6033 28.0111 69.6704 26.8V26.3334C69.6281 24.6267 69.9969 22.9349 70.7458 21.4C71.3976 20.0161 72.446 18.8561 73.7582 18.0667C75.1166 17.2592 76.6727 16.8438 78.2536 16.8667C79.3638 16.8099 80.4731 16.9952 81.5044 17.4097C82.5356 17.8242 83.464 18.4579 84.2251 19.2667C85.7013 20.8667 86.3692 23.0667 86.3692 26V28H74.6333C74.7507 29.0913 75.2497 30.1063 76.0426 30.8667C76.8725 31.5993 77.9549 31.9817 79.0618 31.9334C79.9117 31.9739 80.7586 31.8068 81.5292 31.4466C82.2997 31.0865 82.9706 30.5442 83.4836 29.8667L85.9016 32.5334C85.1506 33.6095 84.1014 34.4436 82.8825 34.9334C81.6129 35.5691 80.2082 35.8893 78.7879 35.8667ZM78.3538 20.8667C77.9139 20.848 77.4755 20.9281 77.0708 21.1012C76.6662 21.2743 76.3057 21.5359 76.0159 21.8667C75.3514 22.6574 74.954 23.6373 74.8804 24.6667H81.6935V24.2667C81.7266 23.3443 81.4174 22.4422 80.8252 21.7334C80.4948 21.4275 80.1049 21.1927 79.6797 21.0436C79.2546 20.8945 78.8032 20.8343 78.3538 20.8667Z" fill="white"/>
<path d="M96.3351 32.1733C97.0936 32.1959 97.8313 31.9234 98.3924 31.4133C98.6709 31.1446 98.8902 30.8208 99.0363 30.4626C99.1824 30.1045 99.252 29.7198 99.2407 29.3333H103.602C103.612 30.5596 103.287 31.7654 102.664 32.8221C102.04 33.8788 101.141 34.7467 100.062 35.3333C98.9295 35.9308 97.6697 36.2486 96.3885 36.26C95.2786 36.3115 94.1718 36.1073 93.1537 35.6634C92.1356 35.2195 91.2334 34.5477 90.5172 33.7C89.041 32 88.373 29.6133 88.373 26.56V26.2133C88.373 23.3066 89.041 20.9533 90.5239 19.22C91.2107 18.4474 92.0439 17.8182 92.9755 17.3685C93.9071 16.9189 94.9187 16.6577 95.9519 16.6001C96.9851 16.5425 98.0195 16.6895 98.9955 17.0327C99.9715 17.376 100.87 17.9086 101.639 18.6C102.975 19.9333 103.602 21.7866 103.642 24H99.2807C99.294 23.122 99.0065 22.2659 98.4658 21.5733C98.2016 21.2723 97.8729 21.0345 97.504 20.8775C97.1351 20.7206 96.7356 20.6485 96.3351 20.6666C95.8415 20.6437 95.351 20.7558 94.9167 20.9908C94.4823 21.2258 94.1205 21.5747 93.8703 22C93.3025 22.9 93.0487 24.1466 93.0487 26.0866V26.6666C93.0487 28.6066 93.3025 30.06 93.8703 30.8933C94.1387 31.2978 94.5057 31.6275 94.9369 31.8514C95.368 32.0753 95.8492 32.1861 96.3351 32.1733Z" fill="white"/>
<path d="M111.751 18.9999C112.308 18.2692 113.028 17.678 113.853 17.273C114.679 16.868 115.587 16.6604 116.507 16.6666C120.421 16.6666 122.372 18.9999 122.439 23.5999V35.3333H117.763V23.7333C117.835 22.8999 117.598 22.0692 117.095 21.3999C116.634 20.8666 115.906 20.6666 114.851 20.6666C114.23 20.6288 113.611 20.7648 113.063 21.0592C112.516 21.3537 112.061 21.7949 111.751 22.3333V35.3333H107.076V9.33325H111.751V18.9999Z" fill="white"/>
<path d="M127.114 35.2668V8.66675H136.419C139.639 8.66675 142.117 9.26675 143.766 10.5401C144.591 11.1723 145.247 11.996 145.679 12.9396C146.111 13.8831 146.305 14.9178 146.245 15.9534C146.272 17.1858 145.922 18.3973 145.243 19.4267C144.573 20.4309 143.606 21.2021 142.477 21.6334C143.768 21.9051 144.912 22.6436 145.69 23.7067C146.522 24.7977 146.947 26.1437 146.892 27.5134C146.892 30.0534 146.091 31.9934 144.414 33.3267C142.738 34.6601 140.467 35.3267 137.454 35.3267H127.114V35.2668ZM132.458 20.0001H136.533C139.271 19.9334 140.674 18.8667 140.674 16.7334C140.724 16.2457 140.652 15.7533 140.466 15.2998C140.279 14.8463 139.984 14.4456 139.605 14.1334C138.937 13.6001 137.802 13.3334 136.265 13.3334H132.458V20.0001ZM132.458 24.0667V31.3334H137.221C138.321 31.3853 139.404 31.0476 140.28 30.3801C140.648 30.0631 140.939 29.6652 141.127 29.2176C141.316 28.77 141.399 28.2848 141.369 27.8001C141.369 25.3601 140.079 24.0667 137.494 24.0001H132.458V24.0667Z" fill="white"/>
<path d="M150.292 12.4C150.286 12.0659 150.348 11.734 150.474 11.4245C150.6 11.115 150.788 10.8345 151.027 10.6C151.587 10.1264 152.297 9.86646 153.031 9.86646C153.765 9.86646 154.475 10.1264 155.035 10.6C155.506 11.0809 155.77 11.727 155.77 12.4C155.77 13.0729 155.506 13.7191 155.035 14.2C154.767 14.4505 154.452 14.6446 154.108 14.7706C153.763 14.8966 153.397 14.9519 153.031 14.9333C152.293 14.9583 151.574 14.6953 151.027 14.2C150.776 13.9749 150.58 13.696 150.452 13.3842C150.325 13.0724 150.27 12.7359 150.292 12.4ZM155.168 35.3333H150.493V16.6666H155.168V35.3333Z" fill="white"/>
<path d="M165.188 31.3334H173.871V35.3334H158.508V32.4001L167.526 20.6667H159.176V16.6667H173.871V19.6534L165.188 31.3334Z" fill="white"/>
</g>
<defs>
<clipPath id="clip0_92_5">
<rect width="173" height="45" fill="white" transform="translate(0.871094)"/>
</clipPath>
</defs>
</svg>
