<svg width="270" height="221" viewBox="0 0 270 221" fill="none" xmlns="http://www.w3.org/2000/svg">
<path d="M18.4926 28.7558L-24.2232 72.6267C-25.6961 74.8387 -27.1691 77.4194 -28.642 80L25.4892 23.9631C23.2797 25.4378 20.702 26.9124 18.4926 28.7558Z" fill="#0E5AF2"/>
<path d="M56.053 9.21659L-42.2669 110.968C-42.6352 112.442 -43.0034 113.548 -43.3716 115.023L60.4719 8.1106C58.6307 8.47926 57.5259 8.84792 56.053 9.21659Z" fill="#0E5AF2"/>
<path d="M81.8296 2.58059L-48.1589 136.774C-48.1589 137.88 -48.5271 138.986 -48.5271 139.723L84.7755 1.84326C83.6708 2.21193 82.5661 2.21193 81.8296 2.58059Z" fill="#0E5AF2"/>
<path d="M102.819 0.368664L-50 157.788C-50 158.525 -50 159.631 -50 160.369L105.397 0C104.661 0 103.556 0 102.819 0.368664Z" fill="#0E5AF2"/>
<path d="M121.6 0.368652L-49.2635 176.59C-49.2635 177.327 -49.2635 178.064 -48.8953 179.17L123.809 0.737316C123.072 0.368652 122.336 0.368652 121.6 0.368652Z" fill="#0E5AF2"/>
<path d="M138.17 2.58057L-46.3177 193.548C-46.3177 194.286 -46.3177 195.023 -45.9495 195.392L140.38 2.94923C139.643 2.94923 138.907 2.58057 138.17 2.58057Z" fill="#0E5AF2"/>
<path d="M153.636 6.26733L-42.6352 209.032C-42.267 209.77 -42.267 210.507 -41.8987 210.876L155.846 6.636C155.109 6.636 154.373 6.26733 153.636 6.26733Z" fill="#0E5AF2"/>
<path d="M167.998 11.0598L-37.1115 222.673C-36.7433 223.41 -36.7433 223.779 -36.375 224.516L169.839 11.4285C169.103 11.4285 168.734 11.0598 167.998 11.0598Z" fill="#0E5AF2"/>
<path d="M181.254 16.9585L-30.8516 235.945C-30.4834 236.682 -30.1151 237.051 -30.1151 237.788L183.095 17.6958C182.359 17.3272 181.622 17.3272 181.254 16.9585Z" fill="#0E5AF2"/>
<path d="M193.406 23.5945L-23.8551 247.742C-23.4869 248.111 -23.1186 248.848 -22.7504 249.217L194.879 24.3318C194.511 24.3318 194.143 23.9631 193.406 23.5945Z" fill="#0E5AF2"/>
<path d="M204.822 31.3364L-15.7538 259.171C-15.3855 259.539 -15.0173 260.276 -14.6491 260.645L206.295 32.8111C205.926 32.0738 205.558 31.7051 204.822 31.3364Z" fill="#0E5AF2"/>
<path d="M215.5 40.1843L-6.54785 269.493C-6.17961 269.862 -5.81137 270.23 -5.0749 270.968L217.342 41.2903C216.237 40.9217 215.869 40.553 215.5 40.1843Z" fill="#0E5AF2"/>
<path d="M225.443 49.4009L3.02655 279.078C3.39479 279.447 3.76303 279.816 4.49951 280.184L226.548 50.8755C226.18 50.5069 225.811 49.7695 225.443 49.4009Z" fill="#0E5AF2"/>
<path d="M234.281 59.7234L13.7054 287.557C14.0737 287.926 14.8102 288.295 15.1784 288.663L235.754 61.198C235.017 60.8294 234.649 60.0921 234.281 59.7234Z" fill="#0E5AF2"/>
<path d="M242.382 70.7834L24.7525 295.668C25.1207 296.037 25.8572 296.406 26.2255 296.774L243.118 72.6268C243.118 71.8894 242.75 71.1521 242.382 70.7834Z" fill="#0E5AF2"/>
<path d="M249.747 82.9492L36.9045 302.304C37.641 302.673 38.0093 303.041 38.7457 303.041L250.483 84.0552C250.483 84.0552 250.115 83.3179 249.747 82.9492Z" fill="#0E5AF2"/>
<path d="M256.007 95.8525L49.7927 308.571C50.5292 308.94 50.8974 308.94 51.6339 309.309L256.743 97.6959C256.743 96.9585 256.375 96.2212 256.007 95.8525Z" fill="#0E5AF2"/>
<path d="M261.53 109.493L64.1541 313.364C64.8906 313.733 65.6271 313.733 65.9953 314.101L261.899 111.705C261.899 110.968 261.899 110.23 261.53 109.493Z" fill="#0E5AF2"/>
<path d="M265.581 124.977L79.6202 317.051C80.3567 317.051 81.0932 317.419 81.8297 317.419L266.318 126.82C265.949 126.452 265.949 125.714 265.581 124.977Z" fill="#0E5AF2"/>
<path d="M268.527 141.567L96.191 319.263C96.9275 319.263 97.6639 319.263 98.7687 319.263L268.895 143.779C268.527 143.042 268.527 142.304 268.527 141.567Z" fill="#0E5AF2"/>
<path d="M269.632 160L114.603 320C115.34 320 116.444 320 117.181 320L269.264 162.949C269.632 161.843 269.632 160.737 269.632 160Z" fill="#0E5AF2"/>
<path d="M268.159 181.014L135.593 318.157C136.697 318.157 137.802 317.788 138.539 317.788L267.791 184.332C267.791 182.857 268.159 181.751 268.159 181.014Z" fill="#0E5AF2"/>
<path d="M263.003 205.714L160.265 311.889C161.738 311.521 162.842 310.783 164.315 310.415L261.899 209.77C262.267 208.664 262.635 207.189 263.003 205.714Z" fill="#0E5AF2"/>
</svg>
