<svg width="280" height="280" viewBox="0 0 280 280" fill="none" xmlns="http://www.w3.org/2000/svg">
<path d="M124.244 280C192.863 280 248.489 224.374 248.489 155.756C248.489 87.1373 192.863 31.5112 124.244 31.5112C55.6261 31.5112 0 87.1373 0 155.756C0 224.374 55.6261 280 124.244 280Z" fill="#276AF4" fill-opacity="0.6"/>
<path d="M151.254 256.592C80.1286 256.592 22.5081 198.971 22.5081 127.846C22.5081 56.7203 80.1286 0 151.254 0C222.379 0 279.1 57.6206 279.1 128.746C279.1 199.871 221.479 256.592 151.254 256.592ZM151.254 9.00322C84.6302 9.00322 31.5113 62.1222 31.5113 128.746C31.5113 195.37 84.6302 248.489 151.254 248.489C217.878 248.489 270.096 194.469 270.096 128.746C270.096 63.0225 216.978 9.00322 151.254 9.00322Z" fill="#0E59F2"/>
</svg>
